<?xml version="1.0" encoding="utf-8"?>
<!-- Generator: Adobe Illustrator 26.0.1, SVG Export Plug-In . SVG Version: 6.00 Build 0)  -->
<svg version="1.1" id="Layer_1" xmlns="http://www.w3.org/2000/svg" xmlns:xlink="http://www.w3.org/1999/xlink" x="0px" y="0px"
	 viewBox="0 0 50 50" style="enable-background:new 0 0 50 50;" xml:space="preserve">
<style type="text/css">
	.st0{fill:none;}
	.st1{fill:#2E3192;}
	.st2{fill:#812990;}
	.st3{fill:#A3238E;}
	.st4{fill:#C6168D;}
	.st5{fill:#5C2D91;}
</style>
<polygon class="st0" points="1.8,1 146.8,1 138.8,49 -6.2,49 "/>
<path class="st1" d="M48.3,34.9H34.6V49h13.7V34.9z"/>
<path class="st2" d="M33.3,18h-6.8h-8.2v7V49h4.8V23.1h3.4h6.8h15v-5H33.3z"/>
<path class="st3" d="M33.3,9.6h-6.8h-8.2H10v7V49h4.8V14.6h3.4h8.2h6.8h15v-5H33.3z"/>
<path class="st4" d="M33.3,1.1h-6.8h-8.2H10H1.8v7V49h4.8V6.2H10h8.2h8.2h6.8h15v-5H33.3z"/>
<path class="st5" d="M33.3,26.5h-6.8v7V49h4.8V31.5h17v-5H33.3z"/>
</svg>
