<?xml version="1.0" standalone="no"?>
<!DOCTYPE svg PUBLIC "-//W3C//DTD SVG 20010904//EN"
 "http://www.w3.org/TR/2001/REC-SVG-20010904/DTD/svg10.dtd">
<svg version="1.0" xmlns="http://www.w3.org/2000/svg"
 width="700.000000pt" height="700.000000pt" viewBox="0 0 700.000000 700.000000"
 preserveAspectRatio="xMidYMid meet">
<metadata>
Created by potrace 1.14, written by Peter Selinger 2001-2017
</metadata>
<g transform="translate(0.000000,700.000000) scale(0.100000,-0.100000)"
fill="#000000" stroke="none">
<path d="M255 6842 c-2 -3 -4 -1512 -4 -3353 l0 -3349 333 0 c258 0 335 3 338
12 2 7 3 1355 3 2996 l-1 2982 146 0 c80 0 1390 0 2911 0 l2767 1 1 349 2 350
-88 0 c-48 0 -519 0 -1045 0 -527 0 -958 4 -958 8 0 8 -4397 12 -4405 4z"/>
<path d="M1404 5651 c-2 -2 -4 -1243 -4 -2758 l0 -2753 335 0 335 0 0 1598 c0
878 1 1962 3 2407 l2 810 2337 0 2337 0 -2 350 -2 350 -2668 0 c-1468 0 -2670
-1 -2673 -4z"/>
<path d="M2563 2310 l0 -2170 336 0 336 0 -1 1803 c0 991 1 1807 3 1812 2 8
541 11 1754 10 963 0 1755 3 1761 6 8 5 13 395 9 659 l-1 36 -1046 -1 c-575 0
-1048 3 -1051 8 -2 4 -476 7 -1052 7 l-1049 0 1 -2170z"/>
<path d="M3710 1715 l0 -1575 335 0 335 0 0 108 c1 59 1 610 1 1224 l1 1118
1190 2 1190 3 0 325 c-1 179 -1 335 -1 348 l-1 22 -1525 0 -1525 0 0 -1575z"/>
<path d="M4847 2105 c-2 -5 -3 -449 -3 -985 l1 -975 958 -3 c907 -2 957 -1
958 15 4 137 -1 1946 -5 1951 -11 11 -1905 8 -1909 -3z"/>
</g>
</svg>
