<svg width="145" height="48" viewBox="0 0 145 48" fill="none" xmlns="http://www.w3.org/2000/svg">
<g clip-path="url(#clip0_347:307)">
<path d="M46.4626 33.9209H32.7988V48H46.4626V33.9209Z" fill="#2E3192"/>
<path d="M31.4334 17.0232H24.6016H16.3994V24.0627V48.0001H23.2313V24.0627H24.6016H31.4334H46.4674V17.0232H31.4334Z" fill="#812990"/>
<path d="M31.4334 8.57153H24.6016H16.3994H8.20215V15.6111V47.9999H15.034V15.6111H16.3994H24.6016H31.4334H46.4675V8.57153H31.4334Z" fill="#A3238E"/>
<path d="M31.4334 0.125244H24.6016H16.3994H8.20214H0V7.16478V48.0001H6.83188V7.16478H8.20214H16.3994H24.6016H31.4334H46.4674V0.125244H31.4334Z" fill="#C6168D"/>
<path d="M31.4334 25.4695H24.6016V32.509V48H31.4334V32.509H46.4675V25.4695H31.4334Z" fill="#5C2D91"/>
<path d="M70.5058 5.08688C69.6749 1.81745 67.9111 0.93626 65.2045 0.93626C60.2386 0.93626 58.0325 4.8065 58.0325 9.26754C58.0325 14.775 60.7633 18.3999 65.2337 18.3999C68.3241 18.3999 69.7575 16.8628 71.1083 13.8938L71.8032 13.9789C71.4387 15.2056 70.8314 17.4837 70.394 18.5601C68.6966 19.0147 66.9569 19.2816 65.2045 19.3562C58.222 19.3562 55.2969 14.4646 55.2969 9.94346C55.2969 4.08552 59.67 0.0200195 65.7293 0.0200195C67.4076 0.0557824 69.0753 0.30295 70.6953 0.756016C70.9188 2.32314 71.0257 3.57483 71.1812 5.05183L70.5058 5.08688Z" fill="#231F20"/>
<path d="M89.1348 5.08688C88.3087 1.81745 86.54 0.93626 83.8384 0.93626C78.8675 0.93626 76.6615 4.8065 76.6615 9.26754C76.6615 14.775 79.3923 18.3999 83.8626 18.3999C86.953 18.3999 88.3913 16.8628 89.7422 13.8938L90.4321 13.9789C90.0726 15.2056 89.4603 17.4837 89.023 18.5601C87.3271 19.0143 85.5891 19.2812 83.8384 19.3562C76.8558 19.3562 73.9307 14.4646 73.9307 9.94346C73.9307 4.08552 78.3039 0.0200195 84.3583 0.0200195C86.0381 0.0559251 87.7074 0.303087 89.3291 0.756016C89.5478 2.32314 89.6595 3.57483 89.815 5.05183L89.1348 5.08688Z" fill="#231F20"/>
<path d="M97.0896 0.425537L103.771 15.0704L110.335 0.425537H114.888V1.08143C112.488 1.27669 112.323 1.39185 112.405 4.55112L112.629 14.785C112.712 17.9693 112.794 18.0544 115.224 18.2547V18.9106H107.935V18.2547C110.253 18.0544 110.335 17.9693 110.311 14.785L110.199 3.32446H110.088L103.329 18.5951H102.639L96.2636 3.72501H96.2101L95.9331 11.6557C95.8131 13.3608 95.8131 15.0726 95.9331 16.7777C96.0692 17.8291 96.73 18.1145 98.5279 18.2797V18.9356H92.041V18.2547C93.5862 18.1145 94.1644 17.8291 94.3588 16.7526C94.6236 14.9633 94.7859 13.1594 94.8447 11.3503L95.146 5.37724C95.3403 1.56708 95.146 1.25166 92.5512 1.05639V0.425537H97.0896Z" fill="#231F20"/>
<path d="M70.5593 33.6656C69.7867 30.0557 67.4932 29.3747 65.0393 29.3747C60.7633 29.3747 58.0325 32.3788 58.0325 37.7611C58.0325 42.082 60.015 46.8334 65.4815 46.8334C66.3604 46.8598 67.2374 46.7346 68.0763 46.4629C68.6837 46.2075 68.8732 46.0073 68.8732 44.6404V42.137C68.8732 40.2044 68.7663 40.0041 65.7585 39.7738V39.1229H72.8479V39.7738C71.3027 40.0342 71.1909 40.1193 71.1909 42.137V44.0596C71.1645 44.9261 71.2215 45.7932 71.361 46.6481C69.6457 47.1488 67.4106 47.7847 65.3406 47.7847C59.5097 47.7847 55.2969 43.8894 55.2969 38.3169C55.2969 31.8881 60.292 28.4485 65.501 28.4485C67.282 28.4605 69.054 28.7096 70.7731 29.1895C70.8557 30.1558 70.9966 31.6328 71.2152 33.5955L70.5593 33.6656Z" fill="#2E3192"/>
<path d="M79.3581 43.2186C79.3581 46.3178 79.5817 46.518 81.846 46.6883V47.3442H74.5039V46.6883C76.8217 46.518 77.0404 46.3178 77.0404 43.2186V32.9847C77.0404 29.8855 76.8217 29.6853 74.6108 29.515V28.8591H81.6322C83.4009 28.8591 84.9704 29.1145 86.0054 29.8254C86.59 30.2166 87.0656 30.758 87.3851 31.3963C87.7047 32.0346 87.8572 32.7478 87.8275 33.4654C87.8275 35.8286 86.4233 37.5058 84.1881 38.4421C84.674 39.2983 85.8159 41.2559 86.6176 42.5076C87.3096 43.6077 88.0794 44.6536 88.9208 45.6369C89.4256 46.3563 90.1661 46.8632 91.0054 47.0638L90.9519 47.6045H90.5632C87.3902 47.5194 86.4233 46.5231 85.3786 44.9609C84.5477 43.6742 83.362 41.5563 82.604 40.2345C82.4453 39.9069 82.1944 39.6361 81.8841 39.4574C81.5738 39.2788 81.2185 39.2007 80.8645 39.2332H79.3727L79.3581 43.2186ZM79.3581 38.387H80.9616C82.0938 38.387 82.9733 38.2418 83.7216 37.616C84.2525 37.1618 84.6733 36.5865 84.9508 35.9355C85.2283 35.2846 85.3548 34.576 85.3202 33.8659C85.3202 30.8618 83.226 29.6853 81.156 29.6853C80.637 29.6472 80.1154 29.6945 79.6108 29.8254C79.4456 29.8855 79.3581 30.0257 79.3581 30.5965V38.387Z" fill="#2E3192"/>
<path d="M109.213 37.8463C109.213 43.7593 105.214 47.7698 99.9418 47.7698C94.6697 47.7698 91.0254 43.6742 91.0254 38.302C91.0254 33.5255 94.2858 28.4336 100.437 28.4336C105.214 28.4336 109.213 32.2437 109.213 37.8463ZM99.7183 29.3749C96.4627 29.3749 93.7027 32.1286 93.7027 37.4758C93.7027 42.9833 96.4919 46.8335 100.505 46.8335C103.819 46.8335 106.521 44.1849 106.521 38.8978C106.536 32.7544 103.669 29.3749 99.7183 29.3749Z" fill="#2E3192"/>
<path d="M117.59 28.8591V29.5401C115.384 29.7103 115.16 29.9106 115.16 33.0098V38.9278C115.16 41.341 115.466 43.1635 116.322 44.4352C117.177 45.7069 118.445 46.3979 120.296 46.3979C121.092 46.4247 121.881 46.243 122.59 45.87C123.298 45.497 123.904 44.9447 124.349 44.265C125.262 42.8381 125.593 40.3397 125.593 37.9514V36.4244C125.625 34.6105 125.548 32.7963 125.364 30.992C125.228 29.9907 124.485 29.6001 122.663 29.515V28.8591H129.286V29.5401C127.77 29.5951 127.051 30.0407 126.914 31.0171C126.732 32.8214 126.657 34.6356 126.691 36.4494V38.357C126.691 41.6515 126.205 43.9846 124.592 45.747C123.406 47.0538 121.419 47.7948 119.49 47.7948C117.864 47.854 116.267 47.342 114.961 46.3428C113.503 45.1211 112.838 43.1885 112.838 39.9491V32.9847C112.838 29.8855 112.619 29.6853 110.301 29.515V28.8591H117.59Z" fill="#2E3192"/>
<path d="M136.336 43.2186C136.336 46.3178 136.555 46.518 139.252 46.6883V47.3442H131.531V46.6883C133.795 46.518 134.014 46.3178 134.014 43.2186V32.9847C134.014 29.8855 133.795 29.6853 131.672 29.515V28.8591H138.649C140.501 28.8591 142.075 29.1746 143.231 30.0558C143.814 30.5051 144.281 31.0957 144.589 31.7751C144.898 32.4546 145.039 33.2019 145 33.951C145 37.4558 142.269 39.3233 139.616 39.6638C139.205 39.7112 138.791 39.7312 138.377 39.7238L136.336 39.1831V43.2186ZM136.336 38.332C136.998 38.5795 137.698 38.6951 138.401 38.6724C140.141 38.6724 142.405 37.7311 142.405 34.0361C142.405 30.9369 140.831 29.6853 137.988 29.6853C137.516 29.6534 137.042 29.7007 136.584 29.8254C136.419 29.8855 136.336 30.0257 136.336 30.5965V38.332Z" fill="#2E3192"/>
</g>
<defs>
<clipPath id="clip0_347:307">
<rect width="145" height="48" fill="white"/>
</clipPath>
</defs>
</svg>
