<svg width="72" height="71" viewBox="0 0 72 71" fill="none" xmlns="http://www.w3.org/2000/svg">
<mask id="path-1-inside-1_1403:710" fill="white">
<path d="M60.0754 71C60.4593 71 60.8274 70.8475 61.0989 70.5761C61.3704 70.3046 61.5229 69.9364 61.5229 69.5525C61.5229 69.1686 61.3704 68.8004 61.0989 68.529C60.8274 68.2575 60.4593 68.105 60.0754 68.105H10.8489C10.465 68.105 10.0968 68.2575 9.82534 68.529C9.55388 68.8004 9.40137 69.1686 9.40137 69.5525C9.40137 69.9364 9.55388 70.3046 9.82534 70.5761C10.0968 70.8475 10.465 71 10.8489 71H60.0754Z"/>
</mask>
<path d="M60.0754 71C60.4593 71 60.8274 70.8475 61.0989 70.5761C61.3704 70.3046 61.5229 69.9364 61.5229 69.5525C61.5229 69.1686 61.3704 68.8004 61.0989 68.529C60.8274 68.2575 60.4593 68.105 60.0754 68.105H10.8489C10.465 68.105 10.0968 68.2575 9.82534 68.529C9.55388 68.8004 9.40137 69.1686 9.40137 69.5525C9.40137 69.9364 9.55388 70.3046 9.82534 70.5761C10.0968 70.8475 10.465 71 10.8489 71H60.0754Z" fill="#C6168D" stroke="#F3F1F2" mask="url(#path-1-inside-1_1403:710)"/>
<mask id="path-2-inside-2_1403:710" fill="white">
<path d="M69.515 62.0424H60.3541V43.4439C60.3543 43.1764 60.2803 42.9142 60.1404 42.6862C60.0006 42.4582 59.8003 42.2735 59.5619 42.1524L44.7184 34.6114V1.44771C44.7187 1.20013 44.6554 0.956613 44.5346 0.740498C44.4138 0.524382 44.2395 0.342913 44.0285 0.213451C43.8174 0.0839889 43.5767 0.0108749 43.3293 0.00112251C43.0819 -0.0086299 42.8361 0.0452969 42.6156 0.157745L26.9857 8.10961C26.7473 8.23068 26.547 8.41543 26.4072 8.64339C26.2673 8.87136 26.1934 9.13361 26.1935 9.40105V23.5819L11.3559 31.1244C11.1176 31.2452 10.9173 31.4297 10.7775 31.6574C10.6376 31.8851 10.5636 32.1471 10.5637 32.4143V62.0527H1.40282C1.02671 62.0647 0.670021 62.2225 0.40821 62.4928C0.146398 62.7631 0 63.1247 0 63.501C0 63.8773 0.146398 64.2388 0.40821 64.5091C0.670021 64.7794 1.02671 64.9372 1.40282 64.9492H69.5091C69.7031 64.9554 69.8965 64.9225 70.0776 64.8525C70.2587 64.7825 70.4239 64.6769 70.5634 64.5418C70.7029 64.4067 70.8138 64.2449 70.8895 64.0661C70.9652 63.8873 71.0043 63.6951 71.0043 63.501C71.0043 63.3068 70.9652 63.1146 70.8895 62.9358C70.8138 62.757 70.7029 62.5952 70.5634 62.4602C70.4239 62.3251 70.2587 62.2194 70.0776 62.1494C69.8965 62.0794 69.7031 62.0465 69.5091 62.0527L69.515 62.0424ZM26.1994 62.0424H13.4646V33.292L26.1994 26.8127V62.0424ZM41.8292 35.4935V62.0424H29.0959V10.2831L41.8292 3.80382V35.4935ZM57.459 62.0424H44.7184V37.8584L57.4532 44.3377L57.459 62.0424Z"/>
</mask>
<path d="M69.515 62.0424H60.3541V43.4439C60.3543 43.1764 60.2803 42.9142 60.1404 42.6862C60.0006 42.4582 59.8003 42.2735 59.5619 42.1524L44.7184 34.6114V1.44771C44.7187 1.20013 44.6554 0.956613 44.5346 0.740498C44.4138 0.524382 44.2395 0.342913 44.0285 0.213451C43.8174 0.0839889 43.5767 0.0108749 43.3293 0.00112251C43.0819 -0.0086299 42.8361 0.0452969 42.6156 0.157745L26.9857 8.10961C26.7473 8.23068 26.547 8.41543 26.4072 8.64339C26.2673 8.87136 26.1934 9.13361 26.1935 9.40105V23.5819L11.3559 31.1244C11.1176 31.2452 10.9173 31.4297 10.7775 31.6574C10.6376 31.8851 10.5636 32.1471 10.5637 32.4143V62.0527H1.40282C1.02671 62.0647 0.670021 62.2225 0.40821 62.4928C0.146398 62.7631 0 63.1247 0 63.501C0 63.8773 0.146398 64.2388 0.40821 64.5091C0.670021 64.7794 1.02671 64.9372 1.40282 64.9492H69.5091C69.7031 64.9554 69.8965 64.9225 70.0776 64.8525C70.2587 64.7825 70.4239 64.6769 70.5634 64.5418C70.7029 64.4067 70.8138 64.2449 70.8895 64.0661C70.9652 63.8873 71.0043 63.6951 71.0043 63.501C71.0043 63.3068 70.9652 63.1146 70.8895 62.9358C70.8138 62.757 70.7029 62.5952 70.5634 62.4602C70.4239 62.3251 70.2587 62.2194 70.0776 62.1494C69.8965 62.0794 69.7031 62.0465 69.5091 62.0527L69.515 62.0424ZM26.1994 62.0424H13.4646V33.292L26.1994 26.8127V62.0424ZM41.8292 35.4935V62.0424H29.0959V10.2831L41.8292 3.80382V35.4935ZM57.459 62.0424H44.7184V37.8584L57.4532 44.3377L57.459 62.0424Z" fill="#C6168D" stroke="#F3F1F2" mask="url(#path-2-inside-2_1403:710)"/>
<mask id="path-3-inside-3_1403:710" fill="white">
<path d="M48.6646 60.0218C48.9527 60.0214 49.2289 59.9068 49.4326 59.7031C49.6364 59.4994 49.751 59.2232 49.7514 58.9351V43.1609C49.7568 43.0149 49.7326 42.8694 49.6805 42.7329C49.6283 42.5965 49.5492 42.4719 49.4478 42.3667C49.3465 42.2616 49.2249 42.1779 49.0905 42.1208C48.956 42.0636 48.8114 42.0342 48.6654 42.0342C48.5193 42.0342 48.3747 42.0636 48.2403 42.1208C48.1058 42.1779 47.9843 42.2616 47.8829 42.3667C47.7815 42.4719 47.7024 42.5965 47.6502 42.7329C47.5981 42.8694 47.574 43.0149 47.5793 43.1609V58.9351C47.5793 59.223 47.6936 59.4992 47.8971 59.703C48.1006 59.9068 48.3767 60.0214 48.6646 60.0218V60.0218Z"/>
</mask>
<path d="M48.6646 60.0218C48.9527 60.0214 49.2289 59.9068 49.4326 59.7031C49.6364 59.4994 49.751 59.2232 49.7514 58.9351V43.1609C49.7568 43.0149 49.7326 42.8694 49.6805 42.7329C49.6283 42.5965 49.5492 42.4719 49.4478 42.3667C49.3465 42.2616 49.2249 42.1779 49.0905 42.1208C48.956 42.0636 48.8114 42.0342 48.6654 42.0342C48.5193 42.0342 48.3747 42.0636 48.2403 42.1208C48.1058 42.1779 47.9843 42.2616 47.8829 42.3667C47.7815 42.4719 47.7024 42.5965 47.6502 42.7329C47.5981 42.8694 47.574 43.0149 47.5793 43.1609V58.9351C47.5793 59.223 47.6936 59.4992 47.8971 59.703C48.1006 59.9068 48.3767 60.0214 48.6646 60.0218V60.0218Z" fill="#C6168D" stroke="#F3F1F2" mask="url(#path-3-inside-3_1403:710)"/>
<mask id="path-4-inside-4_1403:710" fill="white">
<path d="M53.5169 60.0218C53.8051 60.0218 54.0816 59.9073 54.2854 59.7035C54.4892 59.4997 54.6037 59.2233 54.6037 58.935V47.7435C54.5933 47.4624 54.4744 47.1963 54.2718 47.0011C54.0693 46.8059 53.799 46.6968 53.5177 46.6968C53.2364 46.6968 52.966 46.8059 52.7635 47.0011C52.5609 47.1963 52.442 47.4624 52.4316 47.7435V58.935C52.4316 59.223 52.5459 59.4992 52.7494 59.703C52.9529 59.9067 53.229 60.0214 53.5169 60.0218Z"/>
</mask>
<path d="M53.5169 60.0218C53.8051 60.0218 54.0816 59.9073 54.2854 59.7035C54.4892 59.4997 54.6037 59.2233 54.6037 58.935V47.7435C54.5933 47.4624 54.4744 47.1963 54.2718 47.0011C54.0693 46.8059 53.799 46.6968 53.5177 46.6968C53.2364 46.6968 52.966 46.8059 52.7635 47.0011C52.5609 47.1963 52.442 47.4624 52.4316 47.7435V58.935C52.4316 59.223 52.5459 59.4992 52.7494 59.703C52.9529 59.9067 53.229 60.0214 53.5169 60.0218Z" fill="#C6168D" stroke="#F3F1F2" mask="url(#path-4-inside-4_1403:710)"/>
<mask id="path-5-inside-5_1403:710" fill="white">
<path d="M22.2591 60.0218C22.4018 60.0218 22.5431 59.9937 22.675 59.9391C22.8068 59.8845 22.9267 59.8044 23.0276 59.7035C23.1285 59.6026 23.2085 59.4828 23.2631 59.351C23.3178 59.2191 23.3459 59.0778 23.3459 58.9351V32.4686C23.3355 32.1875 23.2166 31.9214 23.014 31.7262C22.8115 31.531 22.5411 31.4219 22.2598 31.4219C21.9785 31.4219 21.7082 31.531 21.5057 31.7262C21.3031 31.9214 21.1842 32.1875 21.1738 32.4686V58.9351C21.1738 59.2231 21.2881 59.4992 21.4916 59.703C21.6951 59.9068 21.9711 60.0215 22.2591 60.0218Z"/>
</mask>
<path d="M22.2591 60.0218C22.4018 60.0218 22.5431 59.9937 22.675 59.9391C22.8068 59.8845 22.9267 59.8044 23.0276 59.7035C23.1285 59.6026 23.2085 59.4828 23.2631 59.351C23.3178 59.2191 23.3459 59.0778 23.3459 58.9351V32.4686C23.3355 32.1875 23.2166 31.9214 23.014 31.7262C22.8115 31.531 22.5411 31.4219 22.2598 31.4219C21.9785 31.4219 21.7082 31.531 21.5057 31.7262C21.3031 31.9214 21.1842 32.1875 21.1738 32.4686V58.9351C21.1738 59.2231 21.2881 59.4992 21.4916 59.703C21.6951 59.9068 21.9711 60.0215 22.2591 60.0218Z" fill="#C6168D" stroke="#F3F1F2" mask="url(#path-5-inside-5_1403:710)"/>
<mask id="path-6-inside-6_1403:710" fill="white">
<path d="M17.4066 60.0222C17.6947 60.0218 17.9709 59.9072 18.1746 59.7035C18.3783 59.4997 18.4929 59.2236 18.4933 58.9355V37.0531C18.483 36.772 18.364 36.5059 18.1615 36.3106C17.9589 36.1154 17.6886 36.0063 17.4073 36.0063C17.126 36.0063 16.8557 36.1154 16.6531 36.3106C16.4506 36.5059 16.3316 36.772 16.3213 37.0531V58.9355C16.3213 59.2234 16.4356 59.4996 16.6391 59.7034C16.8426 59.9071 17.1186 60.0218 17.4066 60.0222V60.0222Z"/>
</mask>
<path d="M17.4066 60.0222C17.6947 60.0218 17.9709 59.9072 18.1746 59.7035C18.3783 59.4997 18.4929 59.2236 18.4933 58.9355V37.0531C18.483 36.772 18.364 36.5059 18.1615 36.3106C17.9589 36.1154 17.6886 36.0063 17.4073 36.0063C17.126 36.0063 16.8557 36.1154 16.6531 36.3106C16.4506 36.5059 16.3316 36.772 16.3213 37.0531V58.9355C16.3213 59.2234 16.4356 59.4996 16.6391 59.7034C16.8426 59.9071 17.1186 60.0218 17.4066 60.0222V60.0222Z" fill="#C6168D" stroke="#F3F1F2" mask="url(#path-6-inside-6_1403:710)"/>
<mask id="path-7-inside-7_1403:710" fill="white">
<path d="M38.0921 60.0221C38.2348 60.0221 38.3762 59.994 38.508 59.9394C38.6399 59.8848 38.7597 59.8047 38.8606 59.7038C38.9615 59.6029 39.0415 59.4831 39.0961 59.3512C39.1508 59.2194 39.1789 59.0781 39.1789 58.9353V9.80018C39.1685 9.51907 39.0496 9.25292 38.847 9.05771C38.6445 8.8625 38.3742 8.75342 38.0929 8.75342C37.8116 8.75342 37.5412 8.8625 37.3387 9.05771C37.1361 9.25292 37.0172 9.51907 37.0068 9.80018V58.9353C37.0068 59.2233 37.1211 59.4995 37.3246 59.7033C37.5281 59.907 37.8041 60.0217 38.0921 60.0221Z"/>
</mask>
<path d="M38.0921 60.0221C38.2348 60.0221 38.3762 59.994 38.508 59.9394C38.6399 59.8848 38.7597 59.8047 38.8606 59.7038C38.9615 59.6029 39.0415 59.4831 39.0961 59.3512C39.1508 59.2194 39.1789 59.0781 39.1789 58.9353V9.80018C39.1685 9.51907 39.0496 9.25292 38.847 9.05771C38.6445 8.8625 38.3742 8.75342 38.0929 8.75342C37.8116 8.75342 37.5412 8.8625 37.3387 9.05771C37.1361 9.25292 37.0172 9.51907 37.0068 9.80018V58.9353C37.0068 59.2233 37.1211 59.4995 37.3246 59.7033C37.5281 59.907 37.8041 60.0217 38.0921 60.0221Z" fill="#C6168D" stroke="#F3F1F2" mask="url(#path-7-inside-7_1403:710)"/>
<mask id="path-8-inside-8_1403:710" fill="white">
<path d="M32.838 60.0221C33.1261 60.0217 33.4023 59.9071 33.606 59.7033C33.8097 59.4996 33.9243 59.2234 33.9247 58.9353V14.6272C33.9301 14.4813 33.906 14.3357 33.8538 14.1992C33.8017 14.0628 33.7226 13.9382 33.6212 13.8331C33.5198 13.7279 33.3983 13.6442 33.2638 13.5871C33.1294 13.5299 32.9848 13.5005 32.8387 13.5005C32.6926 13.5005 32.548 13.5299 32.4136 13.5871C32.2792 13.6442 32.1576 13.7279 32.0562 13.8331C31.9549 13.9382 31.8757 14.0628 31.8236 14.1992C31.7714 14.3357 31.7473 14.4813 31.7527 14.6272V58.9353C31.7527 59.2233 31.867 59.4995 32.0705 59.7032C32.274 59.907 32.55 60.0217 32.838 60.0221V60.0221Z"/>
</mask>
<path d="M32.838 60.0221C33.1261 60.0217 33.4023 59.9071 33.606 59.7033C33.8097 59.4996 33.9243 59.2234 33.9247 58.9353V14.6272C33.9301 14.4813 33.906 14.3357 33.8538 14.1992C33.8017 14.0628 33.7226 13.9382 33.6212 13.8331C33.5198 13.7279 33.3983 13.6442 33.2638 13.5871C33.1294 13.5299 32.9848 13.5005 32.8387 13.5005C32.6926 13.5005 32.548 13.5299 32.4136 13.5871C32.2792 13.6442 32.1576 13.7279 32.0562 13.8331C31.9549 13.9382 31.8757 14.0628 31.8236 14.1992C31.7714 14.3357 31.7473 14.4813 31.7527 14.6272V58.9353C31.7527 59.2233 31.867 59.4995 32.0705 59.7032C32.274 59.907 32.55 60.0217 32.838 60.0221V60.0221Z" fill="#C6168D" stroke="#F3F1F2" mask="url(#path-8-inside-8_1403:710)"/>
</svg>
