<svg width="70" height="69" viewBox="0 0 70 69" fill="none" xmlns="http://www.w3.org/2000/svg">
<mask id="path-1-inside-1_1403:686" fill="white">
<path d="M65.527 0.996591C65.4366 0.707926 65.2565 0.45562 65.0128 0.276383C64.7691 0.0971462 64.4747 0.000323659 64.1722 0H5.76635C5.46373 0.000466973 5.16914 0.0973301 4.92528 0.276524C4.68142 0.455719 4.50099 0.70793 4.41014 0.996591L0.0655858 14.9344C-0.00139163 15.1468 -0.0173538 15.372 0.0190048 15.5918C0.0553633 15.8115 0.143037 16.0196 0.274866 16.1991C0.406694 16.3786 0.578992 16.5245 0.777772 16.625C0.976552 16.7255 1.19621 16.7777 1.41894 16.7773H4.79288V67.5802C4.79288 67.9568 4.94246 68.3179 5.20872 68.5842C5.47498 68.8504 5.83612 69 6.21266 69H63.7244C64.1011 69 64.4624 68.8504 64.7289 68.5842C64.9954 68.318 65.1453 67.9569 65.1457 67.5802V16.7831H68.5168C68.521 16.7817 68.5255 16.7817 68.5297 16.7831C68.7162 16.7833 68.901 16.7467 69.0733 16.6754C69.2456 16.6042 69.4022 16.4996 69.5341 16.3677C69.666 16.2358 69.7705 16.0792 69.8418 15.9069C69.9131 15.7346 69.9497 15.5498 69.9495 15.3633C69.9505 15.153 69.9041 14.9452 69.8138 14.7553L65.527 0.996591ZM37.9403 66.1546H31.9968V53.6468C31.9881 53.2502 32.0587 52.856 32.2044 52.4871C32.3501 52.1182 32.568 51.7821 32.8454 51.4986C33.1227 51.215 33.4539 50.9898 33.8195 50.836C34.1851 50.6822 34.5777 50.603 34.9743 50.603C35.371 50.603 35.7636 50.6822 36.1292 50.836C36.4948 50.9898 36.826 51.215 37.1033 51.4986C37.3807 51.7821 37.5986 52.1182 37.7443 52.4871C37.89 52.856 37.9606 53.2502 37.9518 53.6468L37.9403 66.1546ZM62.2989 66.1546H40.7784V53.6468C40.7905 52.8751 40.6491 52.1088 40.3622 51.3924C40.0753 50.676 39.6488 50.0238 39.1074 49.4739C38.566 48.9239 37.9207 48.4871 37.2089 48.189C36.4971 47.8909 35.733 47.7373 34.9613 47.7373C34.1896 47.7373 33.4256 47.8909 32.7138 48.189C32.002 48.4871 31.3567 48.9239 30.8153 49.4739C30.2739 50.0238 29.8474 50.676 29.5605 51.3924C29.2736 52.1088 29.1321 52.8751 29.1443 53.6468V66.1546H7.62378V16.7831H62.296L62.2989 66.1546ZM3.34424 13.9378L6.81064 2.841H63.1265L66.5857 13.9378H3.34424Z"/>
</mask>
<path d="M65.527 0.996591C65.4366 0.707926 65.2565 0.45562 65.0128 0.276383C64.7691 0.0971462 64.4747 0.000323659 64.1722 0H5.76635C5.46373 0.000466973 5.16914 0.0973301 4.92528 0.276524C4.68142 0.455719 4.50099 0.70793 4.41014 0.996591L0.0655858 14.9344C-0.00139163 15.1468 -0.0173538 15.372 0.0190048 15.5918C0.0553633 15.8115 0.143037 16.0196 0.274866 16.1991C0.406694 16.3786 0.578992 16.5245 0.777772 16.625C0.976552 16.7255 1.19621 16.7777 1.41894 16.7773H4.79288V67.5802C4.79288 67.9568 4.94246 68.3179 5.20872 68.5842C5.47498 68.8504 5.83612 69 6.21266 69H63.7244C64.1011 69 64.4624 68.8504 64.7289 68.5842C64.9954 68.318 65.1453 67.9569 65.1457 67.5802V16.7831H68.5168C68.521 16.7817 68.5255 16.7817 68.5297 16.7831C68.7162 16.7833 68.901 16.7467 69.0733 16.6754C69.2456 16.6042 69.4022 16.4996 69.5341 16.3677C69.666 16.2358 69.7705 16.0792 69.8418 15.9069C69.9131 15.7346 69.9497 15.5498 69.9495 15.3633C69.9505 15.153 69.9041 14.9452 69.8138 14.7553L65.527 0.996591ZM37.9403 66.1546H31.9968V53.6468C31.9881 53.2502 32.0587 52.856 32.2044 52.4871C32.3501 52.1182 32.568 51.7821 32.8454 51.4986C33.1227 51.215 33.4539 50.9898 33.8195 50.836C34.1851 50.6822 34.5777 50.603 34.9743 50.603C35.371 50.603 35.7636 50.6822 36.1292 50.836C36.4948 50.9898 36.826 51.215 37.1033 51.4986C37.3807 51.7821 37.5986 52.1182 37.7443 52.4871C37.89 52.856 37.9606 53.2502 37.9518 53.6468L37.9403 66.1546ZM62.2989 66.1546H40.7784V53.6468C40.7905 52.8751 40.6491 52.1088 40.3622 51.3924C40.0753 50.676 39.6488 50.0238 39.1074 49.4739C38.566 48.9239 37.9207 48.4871 37.2089 48.189C36.4971 47.8909 35.733 47.7373 34.9613 47.7373C34.1896 47.7373 33.4256 47.8909 32.7138 48.189C32.002 48.4871 31.3567 48.9239 30.8153 49.4739C30.2739 50.0238 29.8474 50.676 29.5605 51.3924C29.2736 52.1088 29.1321 52.8751 29.1443 53.6468V66.1546H7.62378V16.7831H62.296L62.2989 66.1546ZM3.34424 13.9378L6.81064 2.841H63.1265L66.5857 13.9378H3.34424Z" fill="#C6168D" stroke="#F3F1F2" mask="url(#path-1-inside-1_1403:686)"/>
<mask id="path-2-inside-2_1403:686" fill="white">
<path d="M13.1351 29.6433H19.4569C19.8336 29.6429 20.1947 29.493 20.4609 29.2265C20.7272 28.96 20.8767 28.5987 20.8767 28.2221V21.3846C20.8763 21.0082 20.7266 20.6473 20.4604 20.3811C20.1943 20.1149 19.8334 19.9652 19.4569 19.9648H13.1351C12.7587 19.9652 12.3978 20.1149 12.1316 20.3811C11.8654 20.6473 11.7157 21.0082 11.7153 21.3846V28.2221C11.7153 28.5987 11.8649 28.96 12.1311 29.2265C12.3973 29.493 12.7584 29.6429 13.1351 29.6433ZM14.5549 22.8044H18.0372V26.8023H14.5549V22.8044Z"/>
</mask>
<path d="M13.1351 29.6433H19.4569C19.8336 29.6429 20.1947 29.493 20.4609 29.2265C20.7272 28.96 20.8767 28.5987 20.8767 28.2221V21.3846C20.8763 21.0082 20.7266 20.6473 20.4604 20.3811C20.1943 20.1149 19.8334 19.9652 19.4569 19.9648H13.1351C12.7587 19.9652 12.3978 20.1149 12.1316 20.3811C11.8654 20.6473 11.7157 21.0082 11.7153 21.3846V28.2221C11.7153 28.5987 11.8649 28.96 12.1311 29.2265C12.3973 29.493 12.7584 29.6429 13.1351 29.6433ZM14.5549 22.8044H18.0372V26.8023H14.5549V22.8044Z" fill="#C6168D" stroke="#F3F1F2" mask="url(#path-2-inside-2_1403:686)"/>
<mask id="path-3-inside-3_1403:686" fill="white">
<path d="M25.5829 29.6433H31.9062C32.2828 29.6429 32.644 29.493 32.9102 29.2265C33.1764 28.96 33.3259 28.5987 33.3259 28.2221V21.3846C33.3255 21.0082 33.1758 20.6473 32.9096 20.3811C32.6435 20.1149 32.2826 19.9652 31.9062 19.9648H25.5829C25.2064 19.9652 24.8455 20.1149 24.5794 20.3811C24.3132 20.6473 24.1635 21.0082 24.1631 21.3846V28.2221C24.1631 28.5987 24.3126 28.96 24.5788 29.2265C24.845 29.493 25.2062 29.6429 25.5829 29.6433V29.6433ZM27.0041 22.8044H30.4849V26.8023H27.0041V22.8044Z"/>
</mask>
<path d="M25.5829 29.6433H31.9062C32.2828 29.6429 32.644 29.493 32.9102 29.2265C33.1764 28.96 33.3259 28.5987 33.3259 28.2221V21.3846C33.3255 21.0082 33.1758 20.6473 32.9096 20.3811C32.6435 20.1149 32.2826 19.9652 31.9062 19.9648H25.5829C25.2064 19.9652 24.8455 20.1149 24.5794 20.3811C24.3132 20.6473 24.1635 21.0082 24.1631 21.3846V28.2221C24.1631 28.5987 24.3126 28.96 24.5788 29.2265C24.845 29.493 25.2062 29.6429 25.5829 29.6433V29.6433ZM27.0041 22.8044H30.4849V26.8023H27.0041V22.8044Z" fill="#C6168D" stroke="#F3F1F2" mask="url(#path-3-inside-3_1403:686)"/>
<mask id="path-4-inside-4_1403:686" fill="white">
<path d="M38.0311 29.6433H44.3544C44.7311 29.6429 45.0922 29.493 45.3584 29.2265C45.6246 28.96 45.7741 28.5987 45.7741 28.2221V21.3846C45.7738 21.0082 45.6241 20.6473 45.3579 20.3811C45.0917 20.1149 44.7308 19.9652 44.3544 19.9648H38.0311C37.6547 19.9652 37.2938 20.1149 37.0276 20.3811C36.7614 20.6473 36.6117 21.0082 36.6113 21.3846V28.2221C36.6113 28.5987 36.7609 28.96 37.0271 29.2265C37.2933 29.493 37.6544 29.6429 38.0311 29.6433V29.6433ZM39.4509 22.8044H42.9346V26.8023H39.4509V22.8044Z"/>
</mask>
<path d="M38.0311 29.6433H44.3544C44.7311 29.6429 45.0922 29.493 45.3584 29.2265C45.6246 28.96 45.7741 28.5987 45.7741 28.2221V21.3846C45.7738 21.0082 45.6241 20.6473 45.3579 20.3811C45.0917 20.1149 44.7308 19.9652 44.3544 19.9648H38.0311C37.6547 19.9652 37.2938 20.1149 37.0276 20.3811C36.7614 20.6473 36.6117 21.0082 36.6113 21.3846V28.2221C36.6113 28.5987 36.7609 28.96 37.0271 29.2265C37.2933 29.493 37.6544 29.6429 38.0311 29.6433V29.6433ZM39.4509 22.8044H42.9346V26.8023H39.4509V22.8044Z" fill="#C6168D" stroke="#F3F1F2" mask="url(#path-4-inside-4_1403:686)"/>
<mask id="path-5-inside-5_1403:686" fill="white">
<path d="M50.4842 29.6433H56.8075C57.1842 29.6429 57.5453 29.493 57.8115 29.2265C58.0778 28.96 58.2273 28.5987 58.2273 28.2221V21.3846C58.2269 21.0082 58.0772 20.6473 57.811 20.3811C57.5449 20.1149 57.184 19.9652 56.8075 19.9648H50.4842C50.1078 19.9652 49.7469 20.1149 49.4807 20.3811C49.2145 20.6473 49.0648 21.0082 49.0645 21.3846V28.2221C49.0645 28.5987 49.214 28.96 49.4802 29.2265C49.7464 29.493 50.1076 29.6429 50.4842 29.6433V29.6433ZM51.904 22.8044H55.3877V26.8023H51.904V22.8044Z"/>
</mask>
<path d="M50.4842 29.6433H56.8075C57.1842 29.6429 57.5453 29.493 57.8115 29.2265C58.0778 28.96 58.2273 28.5987 58.2273 28.2221V21.3846C58.2269 21.0082 58.0772 20.6473 57.811 20.3811C57.5449 20.1149 57.184 19.9652 56.8075 19.9648H50.4842C50.1078 19.9652 49.7469 20.1149 49.4807 20.3811C49.2145 20.6473 49.0648 21.0082 49.0645 21.3846V28.2221C49.0645 28.5987 49.214 28.96 49.4802 29.2265C49.7464 29.493 50.1076 29.6429 50.4842 29.6433V29.6433ZM51.904 22.8044H55.3877V26.8023H51.904V22.8044Z" fill="#C6168D" stroke="#F3F1F2" mask="url(#path-5-inside-5_1403:686)"/>
<mask id="path-6-inside-6_1403:686" fill="white">
<path d="M13.1351 44.6936H19.4569C19.8335 44.6936 20.1946 44.544 20.4609 44.2777C20.7271 44.0115 20.8767 43.6504 20.8767 43.2738V36.4349C20.8763 36.0585 20.7266 35.6976 20.4604 35.4314C20.1943 35.1652 19.8334 35.0155 19.4569 35.0151H13.1351C12.7587 35.0155 12.3978 35.1652 12.1316 35.4314C11.8654 35.6976 11.7157 36.0585 11.7153 36.4349V43.2738C11.7153 43.6504 11.8649 44.0115 12.1312 44.2777C12.3974 44.544 12.7585 44.6936 13.1351 44.6936V44.6936ZM14.5549 37.8561H18.0372V41.854H14.5549V37.8561Z"/>
</mask>
<path d="M13.1351 44.6936H19.4569C19.8335 44.6936 20.1946 44.544 20.4609 44.2777C20.7271 44.0115 20.8767 43.6504 20.8767 43.2738V36.4349C20.8763 36.0585 20.7266 35.6976 20.4604 35.4314C20.1943 35.1652 19.8334 35.0155 19.4569 35.0151H13.1351C12.7587 35.0155 12.3978 35.1652 12.1316 35.4314C11.8654 35.6976 11.7157 36.0585 11.7153 36.4349V43.2738C11.7153 43.6504 11.8649 44.0115 12.1312 44.2777C12.3974 44.544 12.7585 44.6936 13.1351 44.6936V44.6936ZM14.5549 37.8561H18.0372V41.854H14.5549V37.8561Z" fill="#C6168D" stroke="#F3F1F2" mask="url(#path-6-inside-6_1403:686)"/>
<mask id="path-7-inside-7_1403:686" fill="white">
<path d="M25.5829 44.6936H31.9062C32.2827 44.6936 32.6438 44.544 32.9101 44.2777C33.1763 44.0115 33.3259 43.6504 33.3259 43.2738V36.4349C33.3255 36.0585 33.1758 35.6976 32.9096 35.4314C32.6435 35.1652 32.2826 35.0155 31.9062 35.0151H25.5829C25.2064 35.0155 24.8455 35.1652 24.5794 35.4314C24.3132 35.6976 24.1635 36.0585 24.1631 36.4349V43.2738C24.1631 43.6504 24.3127 44.0115 24.5789 44.2777C24.8452 44.544 25.2063 44.6936 25.5829 44.6936ZM27.0041 37.8561H30.4849V41.854H27.0041V37.8561Z"/>
</mask>
<path d="M25.5829 44.6936H31.9062C32.2827 44.6936 32.6438 44.544 32.9101 44.2777C33.1763 44.0115 33.3259 43.6504 33.3259 43.2738V36.4349C33.3255 36.0585 33.1758 35.6976 32.9096 35.4314C32.6435 35.1652 32.2826 35.0155 31.9062 35.0151H25.5829C25.2064 35.0155 24.8455 35.1652 24.5794 35.4314C24.3132 35.6976 24.1635 36.0585 24.1631 36.4349V43.2738C24.1631 43.6504 24.3127 44.0115 24.5789 44.2777C24.8452 44.544 25.2063 44.6936 25.5829 44.6936ZM27.0041 37.8561H30.4849V41.854H27.0041V37.8561Z" fill="#C6168D" stroke="#F3F1F2" mask="url(#path-7-inside-7_1403:686)"/>
<mask id="path-8-inside-8_1403:686" fill="white">
<path d="M38.0311 44.6936H44.3544C44.7309 44.6936 45.092 44.544 45.3583 44.2777C45.6246 44.0115 45.7741 43.6504 45.7741 43.2738V36.4349C45.7738 36.0585 45.6241 35.6976 45.3579 35.4314C45.0917 35.1652 44.7308 35.0155 44.3544 35.0151H38.0311C37.6547 35.0155 37.2938 35.1652 37.0276 35.4314C36.7614 35.6976 36.6117 36.0585 36.6113 36.4349V43.2738C36.6113 43.6504 36.7609 44.0115 37.0272 44.2777C37.2934 44.544 37.6546 44.6936 38.0311 44.6936ZM39.4509 37.8561H42.9346V41.854H39.4509V37.8561Z"/>
</mask>
<path d="M38.0311 44.6936H44.3544C44.7309 44.6936 45.092 44.544 45.3583 44.2777C45.6246 44.0115 45.7741 43.6504 45.7741 43.2738V36.4349C45.7738 36.0585 45.6241 35.6976 45.3579 35.4314C45.0917 35.1652 44.7308 35.0155 44.3544 35.0151H38.0311C37.6547 35.0155 37.2938 35.1652 37.0276 35.4314C36.7614 35.6976 36.6117 36.0585 36.6113 36.4349V43.2738C36.6113 43.6504 36.7609 44.0115 37.0272 44.2777C37.2934 44.544 37.6546 44.6936 38.0311 44.6936ZM39.4509 37.8561H42.9346V41.854H39.4509V37.8561Z" fill="#C6168D" stroke="#F3F1F2" mask="url(#path-8-inside-8_1403:686)"/>
<mask id="path-9-inside-9_1403:686" fill="white">
<path d="M50.4842 44.6936H56.8075C57.1841 44.6936 57.5452 44.544 57.8115 44.2777C58.0777 44.0115 58.2273 43.6504 58.2273 43.2738V36.4349C58.2269 36.0585 58.0772 35.6976 57.811 35.4314C57.5449 35.1652 57.184 35.0155 56.8075 35.0151H50.4842C50.1078 35.0155 49.7469 35.1652 49.4807 35.4314C49.2145 35.6976 49.0648 36.0585 49.0645 36.4349V43.2738C49.0648 43.6502 49.2145 44.0111 49.4807 44.2773C49.7469 44.5435 50.1078 44.6932 50.4842 44.6936V44.6936ZM51.904 37.8561H55.3877V41.854H51.904V37.8561Z"/>
</mask>
<path d="M50.4842 44.6936H56.8075C57.1841 44.6936 57.5452 44.544 57.8115 44.2777C58.0777 44.0115 58.2273 43.6504 58.2273 43.2738V36.4349C58.2269 36.0585 58.0772 35.6976 57.811 35.4314C57.5449 35.1652 57.184 35.0155 56.8075 35.0151H50.4842C50.1078 35.0155 49.7469 35.1652 49.4807 35.4314C49.2145 35.6976 49.0648 36.0585 49.0645 36.4349V43.2738C49.0648 43.6502 49.2145 44.0111 49.4807 44.2773C49.7469 44.5435 50.1078 44.6932 50.4842 44.6936V44.6936ZM51.904 37.8561H55.3877V41.854H51.904V37.8561Z" fill="#C6168D" stroke="#F3F1F2" mask="url(#path-9-inside-9_1403:686)"/>
<mask id="path-10-inside-10_1403:686" fill="white">
<path d="M13.1351 59.7449H19.4569C19.8334 59.7445 20.1943 59.5948 20.4604 59.3286C20.7266 59.0624 20.8763 58.7015 20.8767 58.3251V51.4862C20.8767 51.1096 20.7271 50.7485 20.4609 50.4823C20.1946 50.216 19.8335 50.0664 19.4569 50.0664H13.1351C12.7585 50.0664 12.3974 50.216 12.1312 50.4823C11.8649 50.7485 11.7153 51.1096 11.7153 51.4862V58.3251C11.7157 58.7015 11.8654 59.0624 12.1316 59.3286C12.3978 59.5948 12.7587 59.7445 13.1351 59.7449V59.7449ZM14.5549 52.9059H18.0372V56.9039H14.5549V52.9059Z"/>
</mask>
<path d="M13.1351 59.7449H19.4569C19.8334 59.7445 20.1943 59.5948 20.4604 59.3286C20.7266 59.0624 20.8763 58.7015 20.8767 58.3251V51.4862C20.8767 51.1096 20.7271 50.7485 20.4609 50.4823C20.1946 50.216 19.8335 50.0664 19.4569 50.0664H13.1351C12.7585 50.0664 12.3974 50.216 12.1312 50.4823C11.8649 50.7485 11.7153 51.1096 11.7153 51.4862V58.3251C11.7157 58.7015 11.8654 59.0624 12.1316 59.3286C12.3978 59.5948 12.7587 59.7445 13.1351 59.7449V59.7449ZM14.5549 52.9059H18.0372V56.9039H14.5549V52.9059Z" fill="#C6168D" stroke="#F3F1F2" mask="url(#path-10-inside-10_1403:686)"/>
<mask id="path-11-inside-11_1403:686" fill="white">
<path d="M50.4842 59.7449H56.8075C57.184 59.7445 57.5449 59.5948 57.811 59.3286C58.0772 59.0624 58.2269 58.7015 58.2273 58.3251V51.4862C58.2273 51.1096 58.0777 50.7485 57.8115 50.4823C57.5452 50.216 57.1841 50.0664 56.8075 50.0664H50.4842C50.1078 50.0668 49.7469 50.2165 49.4807 50.4827C49.2145 50.7489 49.0648 51.1098 49.0645 51.4862V58.3251C49.0648 58.7015 49.2145 59.0624 49.4807 59.3286C49.7469 59.5948 50.1078 59.7445 50.4842 59.7449ZM51.904 52.9059H55.3877V56.9039H51.904V52.9059Z"/>
</mask>
<path d="M50.4842 59.7449H56.8075C57.184 59.7445 57.5449 59.5948 57.811 59.3286C58.0772 59.0624 58.2269 58.7015 58.2273 58.3251V51.4862C58.2273 51.1096 58.0777 50.7485 57.8115 50.4823C57.5452 50.216 57.1841 50.0664 56.8075 50.0664H50.4842C50.1078 50.0668 49.7469 50.2165 49.4807 50.4827C49.2145 50.7489 49.0648 51.1098 49.0645 51.4862V58.3251C49.0648 58.7015 49.2145 59.0624 49.4807 59.3286C49.7469 59.5948 50.1078 59.7445 50.4842 59.7449ZM51.904 52.9059H55.3877V56.9039H51.904V52.9059Z" fill="#C6168D" stroke="#F3F1F2" mask="url(#path-11-inside-11_1403:686)"/>
<mask id="path-12-inside-12_1403:686" fill="white">
<path d="M58.3992 9.28271H11.538C11.1614 9.28271 10.8003 9.43226 10.534 9.69852C10.2677 9.96478 10.1182 10.3259 10.1182 10.7025C10.1182 11.079 10.2677 11.4402 10.534 11.7064C10.8003 11.9727 11.1614 12.1223 11.538 12.1223H58.3992C58.7758 12.1223 59.1369 11.9727 59.4032 11.7064C59.6694 11.4402 59.819 11.079 59.819 10.7025C59.819 10.3259 59.6694 9.96478 59.4032 9.69852C59.1369 9.43226 58.7758 9.28271 58.3992 9.28271Z"/>
</mask>
<path d="M58.3992 9.28271H11.538C11.1614 9.28271 10.8003 9.43226 10.534 9.69852C10.2677 9.96478 10.1182 10.3259 10.1182 10.7025C10.1182 11.079 10.2677 11.4402 10.534 11.7064C10.8003 11.9727 11.1614 12.1223 11.538 12.1223H58.3992C58.7758 12.1223 59.1369 11.9727 59.4032 11.7064C59.6694 11.4402 59.819 11.079 59.819 10.7025C59.819 10.3259 59.6694 9.96478 59.4032 9.69852C59.1369 9.43226 58.7758 9.28271 58.3992 9.28271Z" fill="#C6168D" stroke="#F3F1F2" mask="url(#path-12-inside-12_1403:686)"/>
<mask id="path-13-inside-13_1403:686" fill="white">
<path d="M18.5184 7.50754H51.4173C51.7939 7.50754 52.155 7.35796 52.4213 7.0917C52.6875 6.82544 52.8371 6.4643 52.8371 6.08776C52.8371 5.71121 52.6875 5.35007 52.4213 5.08381C52.155 4.81755 51.7939 4.66797 51.4173 4.66797H18.5184C18.1418 4.66797 17.7807 4.81755 17.5145 5.08381C17.2482 5.35007 17.0986 5.71121 17.0986 6.08776C17.0986 6.4643 17.2482 6.82544 17.5145 7.0917C17.7807 7.35796 18.1418 7.50754 18.5184 7.50754Z"/>
</mask>
<path d="M18.5184 7.50754H51.4173C51.7939 7.50754 52.155 7.35796 52.4213 7.0917C52.6875 6.82544 52.8371 6.4643 52.8371 6.08776C52.8371 5.71121 52.6875 5.35007 52.4213 5.08381C52.155 4.81755 51.7939 4.66797 51.4173 4.66797H18.5184C18.1418 4.66797 17.7807 4.81755 17.5145 5.08381C17.2482 5.35007 17.0986 5.71121 17.0986 6.08776C17.0986 6.4643 17.2482 6.82544 17.5145 7.0917C17.7807 7.35796 18.1418 7.50754 18.5184 7.50754Z" fill="#C6168D" stroke="#F3F1F2" mask="url(#path-13-inside-13_1403:686)"/>
<mask id="path-14-inside-14_1403:686" fill="white">
<path d="M34.9694 56.9888C34.6869 56.9885 34.4105 57.072 34.1754 57.2288C33.9403 57.3856 33.757 57.6086 33.6487 57.8696C33.5404 58.1306 33.5119 58.4178 33.5668 58.695C33.6218 58.9722 33.7577 59.2269 33.9574 59.4268C34.1571 59.6267 34.4117 59.7629 34.6888 59.8181C34.9659 59.8734 35.2532 59.8452 35.5143 59.7371C35.7754 59.629 35.9986 59.4459 36.1556 59.211C36.3126 58.976 36.3964 58.6998 36.3964 58.4172C36.3964 58.0386 36.2461 57.6755 35.9786 57.4077C35.711 57.1398 35.348 56.9892 34.9694 56.9888V56.9888Z"/>
</mask>
<path d="M34.9694 56.9888C34.6869 56.9885 34.4105 57.072 34.1754 57.2288C33.9403 57.3856 33.757 57.6086 33.6487 57.8696C33.5404 58.1306 33.5119 58.4178 33.5668 58.695C33.6218 58.9722 33.7577 59.2269 33.9574 59.4268C34.1571 59.6267 34.4117 59.7629 34.6888 59.8181C34.9659 59.8734 35.2532 59.8452 35.5143 59.7371C35.7754 59.629 35.9986 59.4459 36.1556 59.211C36.3126 58.976 36.3964 58.6998 36.3964 58.4172C36.3964 58.0386 36.2461 57.6755 35.9786 57.4077C35.711 57.1398 35.348 56.9892 34.9694 56.9888V56.9888Z" fill="#C6168D" stroke="#F3F1F2" mask="url(#path-14-inside-14_1403:686)"/>
</svg>
