<svg width="67" height="76" viewBox="0 0 67 76" fill="none" xmlns="http://www.w3.org/2000/svg">
<mask id="path-1-inside-1_1403:719" fill="white">
<path d="M21.9066 36.8682H22.9185C23.2112 36.8682 23.4918 36.752 23.6988 36.545C23.9057 36.3381 24.0219 36.0575 24.0219 35.7649V34.7513C24.0219 34.4587 23.9057 34.178 23.6988 33.9711C23.4918 33.7642 23.2112 33.6479 22.9185 33.6479H21.9066C21.614 33.6479 21.3333 33.7642 21.1264 33.9711C20.9195 34.178 20.8032 34.4587 20.8032 34.7513V35.7649C20.8032 36.0575 20.9195 36.3381 21.1264 36.545C21.3333 36.752 21.614 36.8682 21.9066 36.8682Z"/>
</mask>
<path d="M21.9066 36.8682H22.9185C23.2112 36.8682 23.4918 36.752 23.6988 36.545C23.9057 36.3381 24.0219 36.0575 24.0219 35.7649V34.7513C24.0219 34.4587 23.9057 34.178 23.6988 33.9711C23.4918 33.7642 23.2112 33.6479 22.9185 33.6479H21.9066C21.614 33.6479 21.3333 33.7642 21.1264 33.9711C20.9195 34.178 20.8032 34.4587 20.8032 34.7513V35.7649C20.8032 36.0575 20.9195 36.3381 21.1264 36.545C21.3333 36.752 21.614 36.8682 21.9066 36.8682Z" fill="#C6168D" stroke="#F3F1F2" mask="url(#path-1-inside-1_1403:719)"/>
<mask id="path-2-inside-2_1403:719" fill="white">
<path d="M27.2439 37.9731H26.2303C25.6209 37.9731 25.127 38.4671 25.127 39.0765V40.09C25.127 40.6994 25.6209 41.1934 26.2303 41.1934H27.2439C27.8532 41.1934 28.3472 40.6994 28.3472 40.09V39.0765C28.3472 38.4671 27.8532 37.9731 27.2439 37.9731Z"/>
</mask>
<path d="M27.2439 37.9731H26.2303C25.6209 37.9731 25.127 38.4671 25.127 39.0765V40.09C25.127 40.6994 25.6209 41.1934 26.2303 41.1934H27.2439C27.8532 41.1934 28.3472 40.6994 28.3472 40.09V39.0765C28.3472 38.4671 27.8532 37.9731 27.2439 37.9731Z" fill="#C6168D" stroke="#F3F1F2" mask="url(#path-2-inside-2_1403:719)"/>
<mask id="path-3-inside-3_1403:719" fill="white">
<path d="M26.2303 36.8682H27.2423C27.5349 36.8682 27.8156 36.752 28.0225 36.545C28.2294 36.3381 28.3457 36.0575 28.3457 35.7649V34.7513C28.3457 34.4587 28.2294 34.178 28.0225 33.9711C27.8156 33.7642 27.5349 33.6479 27.2423 33.6479H26.2303C25.9377 33.6479 25.6571 33.7642 25.4501 33.9711C25.2432 34.178 25.127 34.4587 25.127 34.7513V35.7649C25.127 36.0575 25.2432 36.3381 25.4501 36.545C25.6571 36.752 25.9377 36.8682 26.2303 36.8682Z"/>
</mask>
<path d="M26.2303 36.8682H27.2423C27.5349 36.8682 27.8156 36.752 28.0225 36.545C28.2294 36.3381 28.3457 36.0575 28.3457 35.7649V34.7513C28.3457 34.4587 28.2294 34.178 28.0225 33.9711C27.8156 33.7642 27.5349 33.6479 27.2423 33.6479H26.2303C25.9377 33.6479 25.6571 33.7642 25.4501 33.9711C25.2432 34.178 25.127 34.4587 25.127 34.7513V35.7649C25.127 36.0575 25.2432 36.3381 25.4501 36.545C25.6571 36.752 25.9377 36.8682 26.2303 36.8682Z" fill="#C6168D" stroke="#F3F1F2" mask="url(#path-3-inside-3_1403:719)"/>
<mask id="path-4-inside-4_1403:719" fill="white">
<path d="M21.9066 41.1934H22.9185C23.2112 41.1934 23.4918 41.0771 23.6988 40.8702C23.9057 40.6633 24.0219 40.3827 24.0219 40.09V39.0765C24.0219 38.7839 23.9057 38.5032 23.6988 38.2963C23.4918 38.0894 23.2112 37.9731 22.9185 37.9731H21.9066C21.614 37.9731 21.3333 38.0894 21.1264 38.2963C20.9195 38.5032 20.8032 38.7839 20.8032 39.0765V40.09C20.8032 40.3827 20.9195 40.6633 21.1264 40.8702C21.3333 41.0771 21.614 41.1934 21.9066 41.1934V41.1934Z"/>
</mask>
<path d="M21.9066 41.1934H22.9185C23.2112 41.1934 23.4918 41.0771 23.6988 40.8702C23.9057 40.6633 24.0219 40.3827 24.0219 40.09V39.0765C24.0219 38.7839 23.9057 38.5032 23.6988 38.2963C23.4918 38.0894 23.2112 37.9731 22.9185 37.9731H21.9066C21.614 37.9731 21.3333 38.0894 21.1264 38.2963C20.9195 38.5032 20.8032 38.7839 20.8032 39.0765V40.09C20.8032 40.3827 20.9195 40.6633 21.1264 40.8702C21.3333 41.0771 21.614 41.1934 21.9066 41.1934V41.1934Z" fill="#C6168D" stroke="#F3F1F2" mask="url(#path-4-inside-4_1403:719)"/>
<mask id="path-5-inside-5_1403:719" fill="white">
<path d="M46.4189 46.5605H45.3061C44.984 46.5614 44.6754 46.6897 44.4477 46.9174C44.22 47.1451 44.0917 47.4538 44.0908 47.7758V48.8918C44.0921 49.2134 44.2206 49.5215 44.4484 49.7486C44.6761 49.9758 44.9845 50.1035 45.3061 50.1039H46.4189C46.7403 50.1031 47.0483 49.9752 47.2757 49.7481C47.5031 49.521 47.6314 49.2132 47.6326 48.8918V47.7758C47.6322 47.4539 47.5043 47.1453 47.2768 46.9175C47.0493 46.6897 46.7408 46.5614 46.4189 46.5605V46.5605Z"/>
</mask>
<path d="M46.4189 46.5605H45.3061C44.984 46.5614 44.6754 46.6897 44.4477 46.9174C44.22 47.1451 44.0917 47.4538 44.0908 47.7758V48.8918C44.0921 49.2134 44.2206 49.5215 44.4484 49.7486C44.6761 49.9758 44.9845 50.1035 45.3061 50.1039H46.4189C46.7403 50.1031 47.0483 49.9752 47.2757 49.7481C47.5031 49.521 47.6314 49.2132 47.6326 48.8918V47.7758C47.6322 47.4539 47.5043 47.1453 47.2768 46.9175C47.0493 46.6897 46.7408 46.5614 46.4189 46.5605V46.5605Z" fill="#C6168D" stroke="#F3F1F2" mask="url(#path-5-inside-5_1403:719)"/>
<mask id="path-6-inside-6_1403:719" fill="white">
<path d="M50.057 54.8611H51.1714C51.4934 54.8603 51.8021 54.732 52.0298 54.5043C52.2575 54.2766 52.3859 53.9679 52.3867 53.6459V52.5315C52.385 52.21 52.2563 51.9021 52.0287 51.6751C51.801 51.448 51.4929 51.3202 51.1714 51.3193H50.057C49.7358 51.3206 49.428 51.4486 49.2007 51.6756C48.9734 51.9027 48.8449 52.2102 48.8433 52.5315V53.6459C48.8441 53.9677 48.9722 54.2761 49.1996 54.5037C49.427 54.7314 49.7352 54.8599 50.057 54.8611V54.8611Z"/>
</mask>
<path d="M50.057 54.8611H51.1714C51.4934 54.8603 51.8021 54.732 52.0298 54.5043C52.2575 54.2766 52.3859 53.9679 52.3867 53.6459V52.5315C52.385 52.21 52.2563 51.9021 52.0287 51.6751C51.801 51.448 51.4929 51.3202 51.1714 51.3193H50.057C49.7358 51.3206 49.428 51.4486 49.2007 51.6756C48.9734 51.9027 48.8449 52.2102 48.8433 52.5315V53.6459C48.8441 53.9677 48.9722 54.2761 49.1996 54.5037C49.427 54.7314 49.7352 54.8599 50.057 54.8611V54.8611Z" fill="#C6168D" stroke="#F3F1F2" mask="url(#path-6-inside-6_1403:719)"/>
<mask id="path-7-inside-7_1403:719" fill="white">
<path d="M50.057 50.101H51.1714C51.4929 50.1002 51.801 49.9723 52.0287 49.7453C52.2563 49.5182 52.385 49.2104 52.3867 48.8889V47.7729C52.3859 47.4508 52.2575 47.1422 52.0298 46.9145C51.8021 46.6868 51.4934 46.5584 51.1714 46.5576H50.057C49.7352 46.5589 49.427 46.6874 49.1996 46.915C48.9722 47.1427 48.8441 47.4511 48.8433 47.7729V48.8889C48.8449 49.2101 48.9734 49.5177 49.2007 49.7447C49.428 49.9717 49.7358 50.0998 50.057 50.101V50.101Z"/>
</mask>
<path d="M50.057 50.101H51.1714C51.4929 50.1002 51.801 49.9723 52.0287 49.7453C52.2563 49.5182 52.385 49.2104 52.3867 48.8889V47.7729C52.3859 47.4508 52.2575 47.1422 52.0298 46.9145C51.8021 46.6868 51.4934 46.5584 51.1714 46.5576H50.057C49.7352 46.5589 49.427 46.6874 49.1996 46.915C48.9722 47.1427 48.8441 47.4511 48.8433 47.7729V48.8889C48.8449 49.2101 48.9734 49.5177 49.2007 49.7447C49.428 49.9717 49.7358 50.0998 50.057 50.101V50.101Z" fill="#C6168D" stroke="#F3F1F2" mask="url(#path-7-inside-7_1403:719)"/>
<mask id="path-8-inside-8_1403:719" fill="white">
<path d="M46.4189 51.3193H45.3061C44.9845 51.3198 44.6761 51.4475 44.4484 51.6746C44.2206 51.9018 44.0921 52.2098 44.0908 52.5315V53.6459C44.0917 53.9679 44.22 54.2766 44.4477 54.5043C44.6754 54.732 44.984 54.8603 45.3061 54.8611H46.4189C46.7408 54.8603 47.0493 54.732 47.2768 54.5042C47.5043 54.2764 47.6322 53.9678 47.6326 53.6459V52.5315C47.6314 52.2101 47.5031 51.9023 47.2757 51.6752C47.0483 51.4481 46.7403 51.3202 46.4189 51.3193V51.3193Z"/>
</mask>
<path d="M46.4189 51.3193H45.3061C44.9845 51.3198 44.6761 51.4475 44.4484 51.6746C44.2206 51.9018 44.0921 52.2098 44.0908 52.5315V53.6459C44.0917 53.9679 44.22 54.2766 44.4477 54.5043C44.6754 54.732 44.984 54.8603 45.3061 54.8611H46.4189C46.7408 54.8603 47.0493 54.732 47.2768 54.5042C47.5043 54.2764 47.6322 53.9678 47.6326 53.6459V52.5315C47.6314 52.2101 47.5031 51.9023 47.2757 51.6752C47.0483 51.4481 46.7403 51.3202 46.4189 51.3193V51.3193Z" fill="#C6168D" stroke="#F3F1F2" mask="url(#path-8-inside-8_1403:719)"/>
<mask id="path-9-inside-9_1403:719" fill="white">
<path d="M15.0048 52.3613H14.1063C13.8486 52.3622 13.6018 52.4649 13.4196 52.6471C13.2374 52.8293 13.1346 53.0762 13.1338 53.3339V54.2276C13.1346 54.4853 13.2374 54.7322 13.4196 54.9144C13.6018 55.0966 13.8486 55.1993 14.1063 55.2001H14.9985C15.2563 55.1993 15.5033 55.0966 15.6858 54.9145C15.8683 54.7323 15.9714 54.4854 15.9726 54.2276V53.3339C15.9714 53.0771 15.8692 52.8312 15.6881 52.6492C15.507 52.4672 15.2615 52.3638 15.0048 52.3613V52.3613Z"/>
</mask>
<path d="M15.0048 52.3613H14.1063C13.8486 52.3622 13.6018 52.4649 13.4196 52.6471C13.2374 52.8293 13.1346 53.0762 13.1338 53.3339V54.2276C13.1346 54.4853 13.2374 54.7322 13.4196 54.9144C13.6018 55.0966 13.8486 55.1993 14.1063 55.2001H14.9985C15.2563 55.1993 15.5033 55.0966 15.6858 54.9145C15.8683 54.7323 15.9714 54.4854 15.9726 54.2276V53.3339C15.9714 53.0771 15.8692 52.8312 15.6881 52.6492C15.507 52.4672 15.2615 52.3638 15.0048 52.3613V52.3613Z" fill="#C6168D" stroke="#F3F1F2" mask="url(#path-9-inside-9_1403:719)"/>
<mask id="path-10-inside-10_1403:719" fill="white">
<path d="M17.9217 59.0096H18.8139C19.0717 59.0092 19.3188 58.9066 19.5011 58.7243C19.6834 58.542 19.786 58.2949 19.7865 58.0371V57.1449C19.7856 56.8872 19.6829 56.6403 19.5007 56.4581C19.3185 56.2759 19.0716 56.1732 18.8139 56.1724H17.9217C17.6641 56.1732 17.4172 56.2759 17.235 56.4581C17.0528 56.6403 16.95 56.8872 16.9492 57.1449V58.0371C16.95 58.2947 17.0528 58.5416 17.235 58.7238C17.4172 58.906 17.6641 59.0088 17.9217 59.0096Z"/>
</mask>
<path d="M17.9217 59.0096H18.8139C19.0717 59.0092 19.3188 58.9066 19.5011 58.7243C19.6834 58.542 19.786 58.2949 19.7865 58.0371V57.1449C19.7856 56.8872 19.6829 56.6403 19.5007 56.4581C19.3185 56.2759 19.0716 56.1732 18.8139 56.1724H17.9217C17.6641 56.1732 17.4172 56.2759 17.235 56.4581C17.0528 56.6403 16.95 56.8872 16.9492 57.1449V58.0371C16.95 58.2947 17.0528 58.5416 17.235 58.7238C17.4172 58.906 17.6641 59.0088 17.9217 59.0096Z" fill="#C6168D" stroke="#F3F1F2" mask="url(#path-10-inside-10_1403:719)"/>
<mask id="path-11-inside-11_1403:719" fill="white">
<path d="M17.9217 55.2001H18.8139C19.0716 55.1993 19.3185 55.0966 19.5007 54.9144C19.6829 54.7322 19.7856 54.4853 19.7865 54.2276V53.3339C19.7856 53.0762 19.6829 52.8293 19.5007 52.6471C19.3185 52.4649 19.0716 52.3622 18.8139 52.3613H17.9217C17.6641 52.3622 17.4172 52.4649 17.235 52.6471C17.0528 52.8293 16.95 53.0762 16.9492 53.3339V54.2276C16.95 54.4853 17.0528 54.7322 17.235 54.9144C17.4172 55.0966 17.6641 55.1993 17.9217 55.2001Z"/>
</mask>
<path d="M17.9217 55.2001H18.8139C19.0716 55.1993 19.3185 55.0966 19.5007 54.9144C19.6829 54.7322 19.7856 54.4853 19.7865 54.2276V53.3339C19.7856 53.0762 19.6829 52.8293 19.5007 52.6471C19.3185 52.4649 19.0716 52.3622 18.8139 52.3613H17.9217C17.6641 52.3622 17.4172 52.4649 17.235 52.6471C17.0528 52.8293 16.95 53.0762 16.9492 53.3339V54.2276C16.95 54.4853 17.0528 54.7322 17.235 54.9144C17.4172 55.0966 17.6641 55.1993 17.9217 55.2001Z" fill="#C6168D" stroke="#F3F1F2" mask="url(#path-11-inside-11_1403:719)"/>
<mask id="path-12-inside-12_1403:719" fill="white">
<path d="M15.0048 56.1724H14.1063C13.8486 56.1732 13.6018 56.2759 13.4196 56.4581C13.2374 56.6403 13.1346 56.8872 13.1338 57.1449V58.0371C13.1342 58.2949 13.2368 58.542 13.4191 58.7243C13.6014 58.9066 13.8485 59.0092 14.1063 59.0096H14.9985C15.2564 59.0092 15.5037 58.9066 15.6863 58.7244C15.8688 58.5421 15.9718 58.295 15.9726 58.0371V57.1449C15.9714 56.8882 15.8692 56.6422 15.6881 56.4602C15.507 56.2782 15.2615 56.1748 15.0048 56.1724V56.1724Z"/>
</mask>
<path d="M15.0048 56.1724H14.1063C13.8486 56.1732 13.6018 56.2759 13.4196 56.4581C13.2374 56.6403 13.1346 56.8872 13.1338 57.1449V58.0371C13.1342 58.2949 13.2368 58.542 13.4191 58.7243C13.6014 58.9066 13.8485 59.0092 14.1063 59.0096H14.9985C15.2564 59.0092 15.5037 58.9066 15.6863 58.7244C15.8688 58.5421 15.9718 58.295 15.9726 58.0371V57.1449C15.9714 56.8882 15.8692 56.6422 15.6881 56.4602C15.507 56.2782 15.2615 56.1748 15.0048 56.1724V56.1724Z" fill="#C6168D" stroke="#F3F1F2" mask="url(#path-12-inside-12_1403:719)"/>
<mask id="path-13-inside-13_1403:719" fill="white">
<path d="M0.775499 57.5691L32.3445 75.7936C32.5803 75.9288 32.8474 76 33.1192 76C33.391 76 33.6581 75.9288 33.8939 75.7936L65.4613 57.5675C65.6966 57.4314 65.8919 57.2358 66.0277 57.0003C66.1635 56.7649 66.2351 56.4979 66.2353 56.2261V19.7755C66.2352 19.5035 66.1637 19.2363 66.0279 19.0006C65.8921 18.7649 65.6967 18.569 65.4613 18.4326L33.8939 0.208075C33.6585 0.0717731 33.3913 0 33.1192 0C32.8472 0 32.5799 0.0717731 32.3445 0.208075L0.775499 18.4326C0.539967 18.5689 0.344364 18.7648 0.208267 19.0004C0.0721706 19.2361 0.000365289 19.5034 0 19.7755V56.2277C0.000482287 56.4996 0.072361 56.7667 0.20846 57.0021C0.344558 57.2375 0.540091 57.433 0.775499 57.5691V57.5691ZM33.1184 72.6616L6.31128 57.194L16.4638 47.0414L38.8087 69.3862L33.1184 72.6616ZM63.1364 55.323L41.586 67.7658L29.2094 55.3876L48.2362 36.3592L63.1364 51.2594V55.323ZM3.10046 20.663L33.1184 3.32431L63.1364 20.663V46.8853L49.3332 33.0775C49.0424 32.7869 48.6481 32.6236 48.2369 32.6236C47.8258 32.6236 47.4315 32.7869 47.1407 33.0775L42.2023 38.0158L25.6707 21.4826C25.3745 21.2024 24.9822 21.0462 24.5744 21.0462C24.1666 21.0462 23.7743 21.2024 23.4781 21.4826L3.10046 41.8603V20.663ZM3.10046 46.2375L24.5736 24.7628L40.0113 40.2005L27.0168 53.1966L17.5593 43.7392C17.4157 43.5949 17.245 43.4805 17.057 43.4024C16.869 43.3244 16.6674 43.2842 16.4638 43.2842C16.2603 43.2842 16.0587 43.3244 15.8707 43.4024C15.6828 43.4805 15.512 43.5949 15.3684 43.7392L3.53234 55.5736L3.10046 55.323V46.2375Z"/>
</mask>
<path d="M0.775499 57.5691L32.3445 75.7936C32.5803 75.9288 32.8474 76 33.1192 76C33.391 76 33.6581 75.9288 33.8939 75.7936L65.4613 57.5675C65.6966 57.4314 65.8919 57.2358 66.0277 57.0003C66.1635 56.7649 66.2351 56.4979 66.2353 56.2261V19.7755C66.2352 19.5035 66.1637 19.2363 66.0279 19.0006C65.8921 18.7649 65.6967 18.569 65.4613 18.4326L33.8939 0.208075C33.6585 0.0717731 33.3913 0 33.1192 0C32.8472 0 32.5799 0.0717731 32.3445 0.208075L0.775499 18.4326C0.539967 18.5689 0.344364 18.7648 0.208267 19.0004C0.0721706 19.2361 0.000365289 19.5034 0 19.7755V56.2277C0.000482287 56.4996 0.072361 56.7667 0.20846 57.0021C0.344558 57.2375 0.540091 57.433 0.775499 57.5691V57.5691ZM33.1184 72.6616L6.31128 57.194L16.4638 47.0414L38.8087 69.3862L33.1184 72.6616ZM63.1364 55.323L41.586 67.7658L29.2094 55.3876L48.2362 36.3592L63.1364 51.2594V55.323ZM3.10046 20.663L33.1184 3.32431L63.1364 20.663V46.8853L49.3332 33.0775C49.0424 32.7869 48.6481 32.6236 48.2369 32.6236C47.8258 32.6236 47.4315 32.7869 47.1407 33.0775L42.2023 38.0158L25.6707 21.4826C25.3745 21.2024 24.9822 21.0462 24.5744 21.0462C24.1666 21.0462 23.7743 21.2024 23.4781 21.4826L3.10046 41.8603V20.663ZM3.10046 46.2375L24.5736 24.7628L40.0113 40.2005L27.0168 53.1966L17.5593 43.7392C17.4157 43.5949 17.245 43.4805 17.057 43.4024C16.869 43.3244 16.6674 43.2842 16.4638 43.2842C16.2603 43.2842 16.0587 43.3244 15.8707 43.4024C15.6828 43.4805 15.512 43.5949 15.3684 43.7392L3.53234 55.5736L3.10046 55.323V46.2375Z" fill="#C6168D" stroke="#F3F1F2" mask="url(#path-13-inside-13_1403:719)"/>
</svg>
