<svg id="Layer_1" data-name="Layer 1" xmlns="http://www.w3.org/2000/svg" xmlns:xlink="http://www.w3.org/1999/xlink" viewBox="0 0 360 168">
  <defs>
    <style>
      .cls-1 {
        fill: none;
      }

      .cls-2 {
        clip-path: url(#clip-path);
      }

      .cls-3 {
        fill: #fff;
      }

      .cls-4 {
        fill: #636466;
      }

      .cls-5 {
        fill: #00833e;
      }

      .cls-6 {
        fill: #a7a9ac;
      }
    </style>
    <clipPath id="clip-path">
      <rect class="cls-1" width="360" height="168"/>
    </clipPath>
  </defs>
  <g class="cls-2">
    <path class="cls-3" d="M137.65,84.17A55.28,55.28,0,1,1,82.37,28.9a55.27,55.27,0,0,1,55.28,55.27"/>
    <polygon class="cls-4" points="166.83 25.03 166.83 70.83 179.65 70.83 179.65 76.33 161.33 76.33 161.33 25.03 166.83 25.03"/>
    <path class="cls-4" d="M195,61.67h10.48l-5.24-26.2Zm-8.43,14.66L196.79,25h6.81l10.26,51.3h-5.5l-1.83-9.16H193.85L192,76.33Z"/>
    <path class="cls-4" d="M243.71,25V65.34q0,11-11,11h-1.83q-11,0-11-11V25h5.5V65.34q0,5.49,5.5,5.49h1.83q5.49,0,5.49-5.49V25Z"/>
    <path class="cls-4" d="M257.14,30.53V56.18h6.42c3.66,0,5.49-1.84,5.49-5.5V36q0-5.49-5.49-5.49Zm6.42-5.5q11,0,11,11V50.68c0,5.13-1.77,8.46-5.34,10l6.26,15.65h-6.41l-5.86-14.66h-6.05V76.33h-5.49V25Z"/>
    <polygon class="cls-4" points="299.7 25.03 299.7 30.53 288.71 30.53 288.71 39.69 297.87 39.69 297.87 45.19 288.71 45.19 288.71 70.83 301.53 70.83 301.53 76.33 283.21 76.33 283.21 25.03 299.7 25.03"/>
    <polygon class="cls-4" points="309.25 25.03 309.25 76.33 327.57 76.33 327.57 70.83 314.74 70.83 314.74 25.03 309.25 25.03"/>
    <path class="cls-4" d="M168.66,102.81q0-11,11-11h1.83v5.5h-1.83c-3.66,0-5.5,1.83-5.5,5.5v29.31q0,11-11,11h-1.83v-5.5h1.83q5.51,0,5.5-5.49Z"/>
    <polygon class="cls-4" points="213.03 91.81 213.03 97.31 203.87 97.31 203.87 143.11 198.38 143.11 198.38 97.31 189.22 97.31 189.22 91.81 213.03 91.81"/>
    <path class="cls-4" d="M226.28,97.31V123h6.41c3.66,0,5.5-1.83,5.5-5.5V102.81c0-3.67-1.84-5.5-5.5-5.5Zm6.41-5.5q11,0,11,11v14.65q0,7.7-5.35,10l6.27,15.64h-6.41l-5.86-14.65h-6.05v14.65h-5.5V91.81Z"/>
    <polygon class="cls-4" points="268.84 91.81 268.84 97.31 257.85 97.31 257.85 106.47 267.01 106.47 267.01 111.97 257.85 111.97 257.85 137.62 270.67 137.62 270.67 143.11 252.35 143.11 252.35 91.81 268.84 91.81"/>
    <polygon class="cls-4" points="294.87 91.81 294.87 97.31 283.87 97.31 283.87 106.47 293.04 106.47 293.04 111.97 283.87 111.97 283.87 137.62 296.7 137.62 296.7 143.11 278.38 143.11 278.38 91.81 294.87 91.81"/>
    <polygon class="cls-4" points="303.42 91.81 303.42 97.31 312.58 97.31 312.58 143.11 318.08 143.11 318.08 97.31 327.24 97.31 327.24 91.81 303.42 91.81"/>
    <path class="cls-5" d="M82.62,22.27a61.83,61.83,0,1,0,61.82,61.82A61.9,61.9,0,0,0,82.62,22.27m34.67,100.51h-6.44l.26,4.76a51.2,51.2,0,0,1-6.39,3.58l.25-8.34H60.9l.5,8.75a52.44,52.44,0,0,1-6.84-3.71l.16-5H48q-1.81-1.64-3.48-3.43h76.3q-1.67,1.8-3.48,3.43M61.42,77.7h45V99.44h-45Zm64.76,9.81-9-7.64v25.7h-3.07V77.28L83.92,51.75,53.29,75.82V104H50.22V78.23L40.32,86,38.43,83.6l24.18-19H34.45a52,52,0,0,1,96.33,0H103.84l24.32,20.58Z"/>
    <rect class="cls-6" x="70.41" y="79.89" width="5.28" height="8.14"/>
    <rect class="cls-6" x="77.56" y="89.74" width="5.42" height="8.15"/>
    <rect class="cls-6" x="77.56" y="79.89" width="5.42" height="8.14"/>
    <rect class="cls-6" x="84.69" y="89.74" width="5.29" height="8.15"/>
    <rect class="cls-6" x="63.29" y="89.74" width="5.42" height="8.15"/>
    <rect class="cls-6" x="63.29" y="79.89" width="5.42" height="8.14"/>
    <rect class="cls-6" x="70.41" y="89.74" width="5.28" height="8.15"/>
    <rect class="cls-6" x="91.85" y="79.89" width="5.42" height="8.14"/>
    <rect class="cls-6" x="91.85" y="89.74" width="5.42" height="8.15"/>
    <rect class="cls-6" x="98.98" y="79.89" width="5.29" height="8.14"/>
    <rect class="cls-6" x="98.98" y="89.74" width="5.29" height="8.15"/>
    <rect class="cls-6" x="84.69" y="79.89" width="5.29" height="8.14"/>
  </g>
</svg>
