<svg height='100px' width='100px'  fill="#C6168D" xmlns="http://www.w3.org/2000/svg" xmlns:xlink="http://www.w3.org/1999/xlink" version="1.1" x="0px" y="0px" viewBox="0 0 100 100" style="enable-background:new 0 0 100 100;" xml:space="preserve"><path d="M11,90h78c0.5527344,0,1-0.4477539,1-1s-0.4472656-1-1-1h-3.2441406V31.6386719c0-0.5522461-0.4472656-1-1-1h-8.2373047  V17.206543C76.5185547,13.2329102,73.2861328,10,69.3125,10H55.0380859c-3.9736328,0-7.2070312,3.2329102-7.2070312,7.206543  v35.1606445h-4.2089844V19.2724609c0-0.440918-0.2890625-0.8295898-0.7109375-0.9570312l-27.3779297-8.2724609  c-0.3017578-0.0922852-0.6318359-0.034668-0.8847656,0.1542969C14.3935547,10.3857422,14.2441406,10.6835938,14.2441406,11v77H11  c-0.5527344,0-1,0.4477539-1,1S10.4472656,90,11,90z M57.6074219,54.3671875V88H29.9326172V54.3671875H57.6074219z M83.7558594,88  H67.6875V32.6386719h16.0683594V88z M49.8310547,17.206543c0-2.8710938,2.3359375-5.206543,5.2070312-5.206543H69.3125  c2.8710938,0,5.2060547,2.3354492,5.2060547,5.206543v13.4321289h-4.1552734v-2.3798828c0-0.5522461-0.4472656-1-1-1  s-1,0.4477539-1,1v2.3798828H66.6875c-0.5527344,0-1,0.4477539-1,1V88h-6.0800781V53.3671875c0-0.5522461-0.4472656-1-1-1  h-8.7763672V17.206543z M16.2441406,12.3466797l25.3779297,7.668457v32.3520508H28.9326172c-0.5527344,0-1,0.4477539-1,1V88  H16.2441406V12.3466797z"></path><path d="M36.40625,65.1166992c0.5527344,0,1-0.4477539,1-1v-3.1035156c0-0.5522461-0.4472656-1-1-1s-1,0.4477539-1,1v3.1035156  C35.40625,64.6689453,35.8535156,65.1166992,36.40625,65.1166992z"></path><path d="M43.6220703,65.1166992c0.5527344,0,1-0.4477539,1-1v-3.1035156c0-0.5522461-0.4472656-1-1-1s-1,0.4477539-1,1v3.1035156  C42.6220703,64.6689453,43.0693359,65.1166992,43.6220703,65.1166992z"></path><path d="M50.8369141,65.1166992c0.5527344,0,1-0.4477539,1-1v-3.1035156c0-0.5522461-0.4472656-1-1-1s-1,0.4477539-1,1v3.1035156  C49.8369141,64.6689453,50.2841797,65.1166992,50.8369141,65.1166992z"></path><path d="M36.40625,73.2353516c0.5527344,0,1-0.4477539,1-1v-3.1035156c0-0.5522461-0.4472656-1-1-1s-1,0.4477539-1,1v3.1035156  C35.40625,72.7875977,35.8535156,73.2353516,36.40625,73.2353516z"></path><path d="M43.6220703,73.2353516c0.5527344,0,1-0.4477539,1-1v-3.1035156c0-0.5522461-0.4472656-1-1-1s-1,0.4477539-1,1v3.1035156  C42.6220703,72.7875977,43.0693359,73.2353516,43.6220703,73.2353516z"></path><path d="M43.6220703,81.3540039c0.5527344,0,1-0.4477539,1-1V77.25c0-0.5522461-0.4472656-1-1-1s-1,0.4477539-1,1v3.1040039  C42.6220703,80.90625,43.0693359,81.3540039,43.6220703,81.3540039z"></path><path d="M50.8369141,81.3540039c0.5527344,0,1-0.4477539,1-1V77.25c0-0.5522461-0.4472656-1-1-1s-1,0.4477539-1,1v3.1040039  C49.8369141,80.90625,50.2841797,81.3540039,50.8369141,81.3540039z"></path><path d="M21.7177734,27.1401367c-0.5527344,0-1,0.4477539-1,1v3.1040039c0,0.5522461,0.4472656,1,1,1s1-0.4477539,1-1v-3.1040039  C22.7177734,27.5878906,22.2705078,27.1401367,21.7177734,27.1401367z"></path><path d="M28.9326172,32.2441406c0.5527344,0,1-0.4477539,1-1v-3.1040039c0-0.5522461-0.4472656-1-1-1s-1,0.4477539-1,1v3.1040039  C27.9326172,31.7963867,28.3798828,32.2441406,28.9326172,32.2441406z"></path><path d="M36.1484375,32.2441406c0.5527344,0,1-0.4477539,1-1v-3.1040039c0-0.5522461-0.4472656-1-1-1s-1,0.4477539-1,1v3.1040039  C35.1484375,31.7963867,35.5957031,32.2441406,36.1484375,32.2441406z"></path><path d="M28.9326172,40.3623047c0.5527344,0,1-0.4477539,1-1v-3.1035156c0-0.5522461-0.4472656-1-1-1s-1,0.4477539-1,1v3.1035156  C27.9326172,39.9145508,28.3798828,40.3623047,28.9326172,40.3623047z"></path><path d="M36.1484375,40.3623047c0.5527344,0,1-0.4477539,1-1v-3.1035156c0-0.5522461-0.4472656-1-1-1s-1,0.4477539-1,1v3.1035156  C35.1484375,39.9145508,35.5957031,40.3623047,36.1484375,40.3623047z"></path><path d="M21.7177734,43.3774414c-0.5527344,0-1,0.4477539-1,1v3.1035156c0,0.5522461,0.4472656,1,1,1s1-0.4477539,1-1v-3.1035156  C22.7177734,43.8251953,22.2705078,43.3774414,21.7177734,43.3774414z"></path><path d="M21.7177734,51.8945312c-0.5527344,0-1,0.4477539-1,1v3.1040039c0,0.5522461,0.4472656,1,1,1s1-0.4477539,1-1v-3.1040039  C22.7177734,52.3422852,22.2705078,51.8945312,21.7177734,51.8945312z"></path><path d="M21.7177734,68.1318359c-0.5527344,0-1,0.4477539-1,1v3.1035156c0,0.5522461,0.4472656,1,1,1s1-0.4477539,1-1v-3.1035156  C22.7177734,68.5795898,22.2705078,68.1318359,21.7177734,68.1318359z"></path><path d="M21.7177734,76.25c-0.5527344,0-1,0.4477539-1,1v3.1040039c0,0.5522461,0.4472656,1,1,1s1-0.4477539,1-1V77.25  C22.7177734,76.6977539,22.2705078,76.25,21.7177734,76.25z"></path><path d="M28.9326172,48.480957c0.5527344,0,1-0.4477539,1-1v-3.1035156c0-0.5522461-0.4472656-1-1-1s-1,0.4477539-1,1v3.1035156  C27.9326172,48.0332031,28.3798828,48.480957,28.9326172,48.480957z"></path><path d="M54.9326172,19.1401367c-0.5527344,0-1,0.4477539-1,1v3.1040039c0,0.5522461,0.4472656,1,1,1s1-0.4477539,1-1v-3.1040039  C55.9326172,19.5878906,55.4853516,19.1401367,54.9326172,19.1401367z"></path><path d="M69.3632812,24.2441406c0.5527344,0,1-0.4477539,1-1v-3.1040039c0-0.5522461-0.4472656-1-1-1s-1,0.4477539-1,1v3.1040039  C68.3632812,23.7963867,68.8105469,24.2441406,69.3632812,24.2441406z"></path><path d="M54.9326172,27.2587891c-0.5527344,0-1,0.4477539-1,1v3.1035156c0,0.5522461,0.4472656,1,1,1s1-0.4477539,1-1v-3.1035156  C55.9326172,27.706543,55.4853516,27.2587891,54.9326172,27.2587891z"></path><path d="M62.1474609,32.3623047c0.5527344,0,1-0.4477539,1-1v-3.1035156c0-0.5522461-0.4472656-1-1-1s-1,0.4477539-1,1v3.1035156  C61.1474609,31.9145508,61.5947266,32.3623047,62.1474609,32.3623047z"></path><path d="M62.1474609,40.480957c0.5527344,0,1-0.4477539,1-1v-3.1035156c0-0.5522461-0.4472656-1-1-1s-1,0.4477539-1,1v3.1035156  C61.1474609,40.0332031,61.5947266,40.480957,62.1474609,40.480957z"></path><path d="M54.9326172,43.3774414c-0.5527344,0-1,0.4477539-1,1v3.1035156c0,0.5522461,0.4472656,1,1,1s1-0.4477539,1-1v-3.1035156  C55.9326172,43.8251953,55.4853516,43.3774414,54.9326172,43.3774414z"></path><path d="M62.1474609,48.480957c0.5527344,0,1-0.4477539,1-1v-3.1035156c0-0.5522461-0.4472656-1-1-1s-1,0.4477539-1,1v3.1035156  C61.1474609,48.0332031,61.5947266,48.480957,62.1474609,48.480957z"></path><path d="M72.9794922,44.6245117c0.5527344,0,1-0.4477539,1-1v-3.1035156c0-0.5522461-0.4472656-1-1-1s-1,0.4477539-1,1v3.1035156  C71.9794922,44.1767578,72.4267578,44.6245117,72.9794922,44.6245117z"></path><path d="M78.4638672,44.6245117c0.5527344,0,1-0.4477539,1-1v-3.1035156c0-0.5522461-0.4472656-1-1-1s-1,0.4477539-1,1v3.1035156  C77.4638672,44.1767578,77.9111328,44.6245117,78.4638672,44.6245117z"></path><path d="M78.4638672,55.059082c0.5527344,0,1-0.4477539,1-1v-3.1040039c0-0.5522461-0.4472656-1-1-1s-1,0.4477539-1,1v3.1040039  C77.4638672,54.6113281,77.9111328,55.059082,78.4638672,55.059082z"></path><path d="M72.9794922,65.4931641c0.5527344,0,1-0.4477539,1-1v-3.1040039c0-0.5522461-0.4472656-1-1-1s-1,0.4477539-1,1v3.1040039  C71.9794922,65.0454102,72.4267578,65.4931641,72.9794922,65.4931641z"></path><path d="M72.9794922,75.9272461c0.5527344,0,1-0.4477539,1-1v-3.1040039c0-0.5522461-0.4472656-1-1-1s-1,0.4477539-1,1v3.1040039  C71.9794922,75.4794922,72.4267578,75.9272461,72.9794922,75.9272461z"></path><path d="M78.4638672,75.9272461c0.5527344,0,1-0.4477539,1-1v-3.1040039c0-0.5522461-0.4472656-1-1-1s-1,0.4477539-1,1v3.1040039  C77.4638672,75.4794922,77.9111328,75.9272461,78.4638672,75.9272461z"></path></svg>