<svg height='100px' width='100px'  fill="#C6168D" xmlns="http://www.w3.org/2000/svg" xmlns:xlink="http://www.w3.org/1999/xlink" version="1.1" x="0px" y="0px" viewBox="0 0 100 100" style="enable-background:new 0 0 100 100;" xml:space="preserve"><path d="M56.3666992,16.3364258C56.3666992,12.8422852,53.5107422,10,50,10s-6.3666992,2.8422852-6.3666992,6.3364258  S46.4892578,22.6733398,50,22.6733398S56.3666992,19.8305664,56.3666992,16.3364258z M45.6333008,16.3364258  C45.6333008,13.9453125,47.5922852,12,50,12s4.3666992,1.9453125,4.3666992,4.3364258  c0,2.3916016-1.9589844,4.3369141-4.3666992,4.3369141S45.6333008,18.7280273,45.6333008,16.3364258z"></path><path d="M73.7915039,19.8447266c-0.0063477,0-0.012207,0-0.0185547,0c-1.690918,0-3.2783203,0.6567383-4.4711914,1.8500977  c-1.1977539,1.1972656-1.8544922,2.7919922-1.8496094,4.4892578c0.0043945,1.6953125,0.6689453,3.2910156,1.8710938,4.4926758  c1.2016602,1.2021484,2.7973633,1.8666992,4.4926758,1.8710938c0.0058594,0,0.012207,0,0.0180664,0  c1.690918,0,3.2783203-0.65625,4.4711914-1.8496094c1.1977539-1.1972656,1.8549805-2.7919922,1.8500977-4.4897461  c-0.0048828-1.6953125-0.6694336-3.2910156-1.8710938-4.4926758S75.4868164,19.8496094,73.7915039,19.8447266z   M76.8911133,29.2841797c-0.8188477,0.8183594-1.9130859,1.2695312-3.0698242,1.2636719  c-1.1630859-0.0029297-2.2583008-0.4594727-3.0839844-1.2851562s-1.2822266-1.9208984-1.2851562-3.0839844  c-0.003418-1.1611328,0.4453125-2.2514648,1.2636719-3.0698242c0.8154297-0.8154297,1.9008789-1.2641602,3.0576172-1.2641602  c0.0039062,0,0.0083008,0,0.012207,0c1.1635742,0.003418,2.2587891,0.4599609,3.0844727,1.2851562  c0.8251953,0.8256836,1.2817383,1.9208984,1.2851562,3.0844727C78.1586914,27.3754883,77.7094727,28.4658203,76.8911133,29.2841797z  "></path><path d="M90,50c0-3.5107422-2.8422852-6.3666992-6.3364258-6.3666992S77.3266602,46.4892578,77.3266602,50  s2.8427734,6.3666992,6.3369141,6.3666992S90,53.5107422,90,50z M79.3266602,50  c0-2.4077148,1.9453125-4.3666992,4.3369141-4.3666992C86.0546875,45.6333008,88,47.5922852,88,50  s-1.9453125,4.3666992-4.3364258,4.3666992C81.2719727,54.3666992,79.3266602,52.4077148,79.3266602,50z"></path><path d="M73.7729492,80.1552734c0.0063477,0,0.012207,0,0.0185547,0c1.6953125-0.0048828,3.2910156-0.6694336,4.4926758-1.8710938  s1.8662109-2.7973633,1.8710938-4.4926758c0.0048828-1.6977539-0.6523438-3.2924805-1.8500977-4.4897461  c-1.1972656-1.1972656-2.7553711-1.8583984-4.4892578-1.8496094c-1.6953125,0.0043945-3.2910156,0.6689453-4.4926758,1.8710938  c-1.2021484,1.2016602-1.8666992,2.7973633-1.8710938,4.4926758c-0.0048828,1.6972656,0.6518555,3.2919922,1.8496094,4.4892578  C70.4946289,79.4985352,72.0820312,80.1552734,73.7729492,80.1552734z M70.7373047,70.7373047  c0.8256836-0.8256836,1.9208984-1.2822266,3.0839844-1.2851562c0.0043945,0,0.0083008,0,0.0126953,0  c1.15625,0,2.2416992,0.4482422,3.0571289,1.2636719c0.8183594,0.8183594,1.2675781,1.9086914,1.2641602,3.0698242  c-0.003418,1.1635742-0.4599609,2.2587891-1.2851562,3.0844727c-0.8256836,0.8251953-1.9208984,1.2817383-3.0844727,1.2851562  c-0.0039062,0-0.0083008,0-0.012207,0c-1.1567383,0-2.2421875-0.4487305-3.0576172-1.2641602  c-0.8183594-0.8183594-1.2670898-1.9086914-1.2636719-3.0698242C69.4550781,72.6582031,69.9116211,71.5629883,70.7373047,70.7373047  z"></path><path d="M43.6333008,83.6635742C43.6333008,87.1577148,46.4892578,90,50,90s6.3666992-2.8422852,6.3666992-6.3364258  S53.5107422,77.3266602,50,77.3266602S43.6333008,80.1694336,43.6333008,83.6635742z M54.3666992,83.6635742  C54.3666992,86.0546875,52.4077148,88,50,88s-4.3666992-1.9453125-4.3666992-4.3364258  c0-2.3916016,1.9589844-4.3369141,4.3666992-4.3369141S54.3666992,81.2719727,54.3666992,83.6635742z"></path><path d="M26.2084961,80.1552734c0.0063477,0,0.012207,0,0.0185547,0c1.690918,0,3.2783203-0.6567383,4.4711914-1.8500977  c1.1977539-1.1972656,1.8544922-2.7919922,1.8496094-4.4892578c-0.0043945-1.6953125-0.6689453-3.2910156-1.8710938-4.4926758  c-1.2016602-1.2021484-2.7973633-1.8666992-4.4926758-1.8710938c-1.6538086,0.0161133-3.2919922,0.6523438-4.4892578,1.8496094  c-1.1977539,1.1972656-1.8549805,2.7919922-1.8500977,4.4897461c0.0048828,1.6953125,0.6694336,3.2910156,1.8710938,4.4926758  S24.5131836,80.1503906,26.2084961,80.1552734z M23.1088867,70.7158203  c0.8154297-0.8154297,1.9008789-1.2636719,3.0571289-1.2636719c0.0043945,0,0.0083008,0,0.0126953,0  c1.1630859,0.0029297,2.2583008,0.4594727,3.0839844,1.2851562s1.2822266,1.9208984,1.2851562,3.0839844  c0.003418,1.1611328-0.4453125,2.2514648-1.2636719,3.0698242c-0.8154297,0.8154297-1.9008789,1.2641602-3.0576172,1.2641602  c-0.0039062,0-0.0083008,0-0.012207,0c-1.1635742-0.003418-2.2587891-0.4599609-3.0844727-1.2851562  c-0.8251953-0.8256836-1.2817383-1.9208984-1.2851562-3.0844727C21.8413086,72.6245117,22.2905273,71.5341797,23.1088867,70.7158203  z"></path><path d="M16.3364258,56.3666992c3.4941406,0,6.3369141-2.855957,6.3369141-6.3666992s-2.8427734-6.3666992-6.3369141-6.3666992  S10,46.4892578,10,50S12.8422852,56.3666992,16.3364258,56.3666992z M16.3364258,45.6333008  c2.3916016,0,4.3369141,1.9589844,4.3369141,4.3666992s-1.9453125,4.3666992-4.3369141,4.3666992  C13.9453125,54.3666992,12,52.4077148,12,50S13.9453125,45.6333008,16.3364258,45.6333008z"></path><path d="M26.1660156,32.5478516c0.0058594,0,0.012207,0,0.0180664,0c1.6953125-0.0043945,3.2910156-0.6689453,4.4926758-1.8710938  c1.2021484-1.2016602,1.8666992-2.7973633,1.8710938-4.4926758c0.0048828-1.6972656-0.6518555-3.2919922-1.8496094-4.4892578  c-1.1928711-1.1933594-2.7802734-1.8500977-4.4711914-1.8500977c-0.0063477,0-0.012207,0-0.0185547,0  c-1.6953125,0.0048828-3.2910156,0.6694336-4.4926758,1.8710938s-1.8662109,2.7973633-1.8710938,4.4926758  c-0.0048828,1.6977539,0.6523438,3.2924805,1.8500977,4.4897461C22.8881836,31.8916016,24.4750977,32.5478516,26.1660156,32.5478516  z M23.1298828,23.1298828c0.8256836-0.8251953,1.9208984-1.2817383,3.0844727-1.2851562c0.0039062,0,0.0083008,0,0.012207,0  c1.1567383,0,2.2421875,0.4487305,3.0576172,1.2641602c0.8183594,0.8183594,1.2670898,1.9086914,1.2636719,3.0698242  c-0.0029297,1.1630859-0.4594727,2.2583008-1.2851562,3.0839844s-1.9208984,1.2822266-3.0839844,1.2851562  c-0.0043945,0-0.0083008,0-0.0126953,0c-1.15625,0-2.2416992-0.4482422-3.0571289-1.2636719  c-0.8183594-0.8183594-1.2675781-1.9086914-1.2641602-3.0698242C21.8481445,25.0507812,22.3046875,23.9555664,23.1298828,23.1298828  z"></path><path d="M33.625,21.581543c0.1650391,0,0.3320312-0.0405273,0.4863281-0.1269531  c2.0742188-1.1577148,4.2802734-2.0878906,6.5556641-2.765625c0.5292969-0.1577148,0.8310547-0.7143555,0.6733398-1.2436523  c-0.1577148-0.5307617-0.7163086-0.8295898-1.2436523-0.6733398c-2.4165039,0.7192383-4.7578125,1.7075195-6.9599609,2.9365234  c-0.4824219,0.269043-0.6552734,0.8779297-0.3857422,1.3603516C32.934082,21.3969727,33.2744141,21.581543,33.625,21.581543z"></path><path d="M65.4521484,21.2236328c0.1513672,0.0820312,0.3144531,0.1206055,0.4750977,0.1206055  c0.3554688,0,0.699707-0.1894531,0.8803711-0.5239258c0.2626953-0.4858398,0.0820312-1.0927734-0.4033203-1.3554688  c-2.2148438-1.1987305-4.5688477-2.1557617-6.9970703-2.8452148c-0.53125-0.1489258-1.0839844,0.1582031-1.2348633,0.6889648  c-0.1508789,0.53125,0.1577148,1.0839844,0.6889648,1.2348633C61.1484375,19.1928711,63.3662109,20.0947266,65.4521484,21.2236328z"></path><path d="M78.8061523,32.6259766c-0.4824219,0.269043-0.6552734,0.8779297-0.3857422,1.3603516  c1.1577148,2.0742188,2.0878906,4.2802734,2.765625,6.5556641c0.1293945,0.4345703,0.5273438,0.715332,0.9580078,0.715332  c0.0947266,0,0.1904297-0.0136719,0.2856445-0.0419922c0.5292969-0.1577148,0.8310547-0.7143555,0.6733398-1.2436523  c-0.7192383-2.4165039-1.7075195-4.7578125-2.9365234-6.9599609C79.8974609,32.5288086,79.2875977,32.3564453,78.8061523,32.6259766  z"></path><path d="M80.4101562,66.2792969c1.1987305-2.215332,2.15625-4.5693359,2.8452148-6.9970703  c0.1508789-0.53125-0.1577148-1.0839844-0.6889648-1.2348633c-0.5302734-0.1503906-1.0834961,0.1582031-1.2348633,0.6889648  c-0.6494141,2.2866211-1.5512695,4.5043945-2.6801758,6.5908203c-0.2626953,0.4858398-0.0820312,1.0927734,0.4033203,1.3554688  c0.1513672,0.0820312,0.3144531,0.1206055,0.4750977,0.1206055C79.8852539,66.8032227,80.2294922,66.6137695,80.4101562,66.2792969z  "></path><path d="M65.8886719,78.2954102c-2.0742188,1.1577148-4.2802734,2.0878906-6.5556641,2.765625  c-0.5292969,0.1577148-0.8310547,0.7143555-0.6733398,1.2436523c0.1293945,0.4345703,0.5273438,0.715332,0.9580078,0.715332  c0.0947266,0,0.1904297-0.0136719,0.2856445-0.0419922c2.4165039-0.7192383,4.7578125-1.7075195,6.9599609-2.9365234  c0.4824219-0.269043,0.6552734-0.8779297,0.3857422-1.3603516C66.9794922,78.1982422,66.3710938,78.0258789,65.8886719,78.2954102z"></path><path d="M34.5478516,78.5263672c-0.4853516-0.262207-1.0922852-0.0820312-1.3554688,0.4033203  c-0.2626953,0.4858398-0.0820312,1.0927734,0.4033203,1.3554688c2.215332,1.1987305,4.5693359,2.15625,6.9970703,2.8452148  c0.0913086,0.0258789,0.1831055,0.0385742,0.2734375,0.0385742c0.4360352,0,0.8364258-0.2875977,0.9614258-0.7275391  c0.1508789-0.53125-0.1577148-1.0839844-0.6889648-1.2348633C38.8520508,80.5571289,36.6342773,79.6552734,34.5478516,78.5263672z"></path><path d="M21.1938477,67.1240234c0.4824219-0.269043,0.6552734-0.8779297,0.3857422-1.3603516  c-1.1577148-2.0742188-2.0878906-4.2802734-2.765625-6.5556641c-0.1582031-0.5302734-0.7167969-0.8320312-1.2436523-0.6733398  c-0.5292969,0.1577148-0.8310547,0.7143555-0.6733398,1.2436523c0.7192383,2.4165039,1.7075195,4.7578125,2.9365234,6.9599609  c0.1831055,0.328125,0.5234375,0.5126953,0.8740234,0.5126953C20.8725586,67.2509766,21.0395508,67.2104492,21.1938477,67.1240234z"></path><path d="M19.5898438,33.4707031c-1.1987305,2.215332-2.15625,4.5693359-2.8452148,6.9970703  c-0.1508789,0.53125,0.1577148,1.0839844,0.6889648,1.2348633c0.0913086,0.0258789,0.1831055,0.0385742,0.2734375,0.0385742  c0.4360352,0,0.8364258-0.2875977,0.9614258-0.7275391c0.6494141-2.2866211,1.5512695-4.5043945,2.6801758-6.5908203  c0.2626953-0.4858398,0.0820312-1.0927734-0.4033203-1.3554688C20.4599609,32.8037109,19.8520508,32.9853516,19.5898438,33.4707031z  "></path><path d="M50,29.4042969c-11.3564453,0-20.5957031,9.2392578-20.5957031,20.5957031S38.6435547,70.5957031,50,70.5957031  c5.5283203,0,10.5441284-2.2008667,14.2474365-5.7582397c0.060791-0.0466919,0.117981-0.0925293,0.1655884-0.1505127  C68.2232056,60.9472656,70.5957031,55.7478027,70.5957031,50C70.5957031,38.6435547,61.3564453,29.4042969,50,29.4042969z   M50,31.4042969c10.2539062,0,18.5957031,8.3417969,18.5957031,18.5957031c0,4.7208252-1.7826538,9.0230103-4.6914673,12.3057861  C61.1524658,57.2369995,55.8512573,54.03125,50,54.03125c-5.8337402,0-11.1531372,3.208313-13.906311,8.2721558  C33.1860962,59.020874,31.4042969,54.7196655,31.4042969,50C31.4042969,39.7460938,39.7460938,31.4042969,50,31.4042969z   M37.5770874,63.7976685C39.8898315,59.0643921,44.7003174,56.03125,50,56.03125  c5.3151855,0,10.1112061,3.0274048,12.4240112,7.7655029C59.1268311,66.7688599,54.7781372,68.5957031,50,68.5957031  C45.2223511,68.5957031,40.8741455,66.769165,37.5770874,63.7976685z"></path><path d="M50,51c4.355957,0,7.8999023-3.5439453,7.8999023-7.8999023S54.355957,35.2001953,50,35.2001953  s-7.8999023,3.5439453-7.8999023,7.8999023S45.644043,51,50,51z M50,37.2001953c3.253418,0,5.8999023,2.6464844,5.8999023,5.8999023  S53.253418,49,50,49s-5.8999023-2.6464844-5.8999023-5.8999023S46.746582,37.2001953,50,37.2001953z"></path></svg>