<svg height='100px' width='100px'  fill="#C6168D" xmlns="http://www.w3.org/2000/svg" xmlns:xlink="http://www.w3.org/1999/xlink" version="1.1" x="0px" y="0px" viewBox="0 0 100 100" style="enable-background:new 0 0 100 100;" xml:space="preserve"><path d="M89,88h-1.3582153l-8.7460938-20.7124023h7.2219849c0.5522461,0,1-0.4477539,1-1v-7.1943359c0-0.5522461-0.4477539-1-1-1  H44.0271606c2.2106323-2.1813965,3.585144-5.2081299,3.585144-8.5517578c0-0.5283203-0.0385742-1.0629883-0.1176758-1.6235352  c2.2958984-2.609375,3.5546875-5.9277344,3.5546875-9.3994141c0-5.8081055-3.503418-10.980957-8.8149414-13.1704102  c0.3168945-1.0888672,0.4770508-2.203125,0.4770508-3.3251953C42.7114258,15.3935547,37.3178711,10,30.6884766,10  c-6.2294922,0-11.3657227,4.722168-11.9536133,10.8598633c-4.1166992,2.0107422-6.7436523,6.1855469-6.7436523,10.8027344  c0,2.2900391,0.6450195,4.4985352,1.8710938,6.4272461c-1.2260742,2.2661133-1.8710938,4.7958984-1.8710938,7.3574219  c0,8.5527344,6.9584961,15.5107422,15.5112305,15.5107422c0.6964722,0,1.4076538-0.0703735,2.1230469-0.1730957V88H11  c-0.5522461,0-1,0.4477539-1,1s0.4477539,1,1,1h78c0.5522461,0,1-0.4477539,1-1S89.5522461,88,89,88z M85.4703369,88h-5.1386108  l-8.7460938-20.7124023h5.1386108L85.4703369,88z M41.7249756,88l8.7456055-20.7124023h5.1386108L46.8630981,88H41.7249756z   M69.4141846,67.2875977L72.9083862,75.5625H54.286438l3.4942017-8.2749023H69.4141846z M53.4419556,77.5625h20.3109131  L78.1602783,88H49.0345459L53.4419556,77.5625z M85.1176758,65.2875977H77.390625c-0.0018921,0-0.0036011,0-0.0054932,0h-7.3044434  c-0.0018311,0-0.0036621,0-0.0054932,0H57.121582c-0.0031128,0-0.0060425,0-0.0091553,0h-7.3006592  c-0.0031128,0-0.0060425,0-0.0091553,0h-7.7254639v-5.1943359h43.0405273V65.2875977z M27.5024414,58.9580078  c-7.4501953,0-13.5112305-6.0610352-13.5112305-13.5107422c0-2.4130859,0.6591797-4.7958984,1.9057617-6.8911133  c0.2026367-0.340332,0.1850586-0.7685547-0.0449219-1.0913086c-1.2172852-1.7094727-1.8608398-3.7158203-1.8608398-5.8022461  c0-4.0214844,2.3911133-7.6411133,6.0917969-9.2207031c0.3535156-0.1508789,0.5888672-0.4912109,0.6064453-0.875  C20.9316406,16.2021484,25.3237305,12,30.6884766,12c5.5268555,0,10.0229492,4.4960938,10.0229492,10.0229492  c0,1.2080078-0.2241211,2.4086914-0.6665039,3.5678711c-0.0976562,0.2548828-0.0864258,0.5380859,0.0302734,0.784668  s0.3291016,0.4345703,0.5878906,0.5205078c5.0161133,1.6704102,8.3862305,6.3408203,8.3862305,11.6225586  c0,3.1254883-1.1884766,6.1069336-3.3457031,8.3959961c-0.2172852,0.2304688-0.3125,0.5498047-0.2568359,0.8613281  c0.1113281,0.6259766,0.1655273,1.2036133,0.1655273,1.765625c0,5.5268555-4.4960938,10.0229492-10.0229492,10.0229492  c-1.3669434,0-2.6973877-0.2894287-3.9638672-0.8388062V48.0904541c6.338501-0.5119629,11.3422852-5.8234863,11.3422852-12.291626  c0-0.5522461-0.4477539-1-1-1s-1,0.4477539-1,1c0,5.3651123-4.1073608,9.7866211-9.3422852,10.2915649V33.4257202  c3.0631714-0.4827271,5.4160156-3.1333618,5.4160156-6.3300171c0-0.5522461-0.4477539-1-1-1s-1,0.4477539-1,1  c0,2.0898438-1.4630737,3.8358154-3.4160156,4.2915649v-4.9956665c0-0.5522461-0.4477539-1-1-1s-1,0.4477539-1,1v10.2758179  c-2.9342651-0.4804688-5.1831055-3.0266724-5.1831055-6.0946655c0-0.5522461-0.4477539-1-1-1s-1,0.4477539-1,1  c0,4.1730347,3.1418457,7.6199951,7.1831055,8.1156006v14.0392456c-5.2349243-0.5049438-9.3422852-4.9264526-9.3422852-10.2915649  c0-0.5522461-0.4477539-1-1-1s-1,0.4477539-1,1c0,6.4681396,5.0037842,11.7796631,11.3422852,12.291626v4.0305786  C28.9075928,58.8764648,28.1950684,58.9580078,27.5024414,58.9580078z M31.6254883,60.8707275  c1.2786255,0.4520264,2.6052246,0.6937256,3.9638672,0.6937256c1.5869751,0,3.0994873-0.3164673,4.487793-0.8775635v5.600708  c0,0.5522461,0.4477539,1,1,1h7.2220459L39.5535278,88h-7.9280396V60.8707275z"></path><path d="M82.2700195,25.8803711c0-4.4941406-3.65625-8.1503906-8.1503906-8.1503906s-8.1503906,3.65625-8.1503906,8.1503906  s3.65625,8.1503906,8.1503906,8.1503906S82.2700195,30.3745117,82.2700195,25.8803711z M74.1196289,32.0307617  c-3.3911133,0-6.1503906-2.7592773-6.1503906-6.1503906s2.7592773-6.1503906,6.1503906-6.1503906  s6.1503906,2.7592773,6.1503906,6.1503906S77.5107422,32.0307617,74.1196289,32.0307617z"></path><path d="M75.1196289,13.8701172V11c0-0.5522461-0.4477539-1-1-1s-1,0.4477539-1,1v2.8701172c0,0.5522461,0.4477539,1,1,1  S75.1196289,14.4223633,75.1196289,13.8701172z"></path><path d="M64.9204102,18.0952148c0.1953125,0.1953125,0.4511719,0.2929688,0.7070312,0.2929688  s0.5117188-0.0976562,0.7070312-0.2929688c0.390625-0.390625,0.390625-1.0234375,0-1.4140625l-2.0297852-2.0297852  c-0.390625-0.390625-1.0234375-0.390625-1.4140625,0s-0.390625,1.0234375,0,1.4140625L64.9204102,18.0952148z"></path><path d="M59.2392578,24.8803711c-0.5522461,0-1,0.4477539-1,1s0.4477539,1,1,1h2.8701172c0.5522461,0,1-0.4477539,1-1  s-0.4477539-1-1-1H59.2392578z"></path><path d="M63.5976562,37.4023438c0.2558594,0,0.5117188-0.0976562,0.7070312-0.2929688l2.0292969-2.0297852  c0.390625-0.390625,0.390625-1.0239258,0-1.4140625c-0.390625-0.390625-1.0234375-0.390625-1.4140625,0l-2.0292969,2.0297852  c-0.390625,0.390625-0.390625,1.0239258,0,1.4140625C63.0859375,37.3046875,63.3417969,37.4023438,63.5976562,37.4023438z"></path><path d="M73.1196289,37.890625v2.8701172c0,0.5522461,0.4477539,1,1,1s1-0.4477539,1-1V37.890625c0-0.5522461-0.4477539-1-1-1  S73.1196289,37.3383789,73.1196289,37.890625z"></path><path d="M83.9345703,37.109375c0.1953125,0.1953125,0.4511719,0.2929688,0.7070312,0.2929688  s0.5117188-0.0976562,0.7070312-0.2929688c0.390625-0.390625,0.390625-1.0239258,0-1.4140625l-2.0297852-2.0292969  c-0.390625-0.390625-1.0234375-0.390625-1.4140625,0s-0.390625,1.0239258,0,1.4140625L83.9345703,37.109375z"></path><path d="M89,24.8803711h-2.8701172c-0.5522461,0-1,0.4477539-1,1s0.4477539,1,1,1H89c0.5522461,0,1-0.4477539,1-1  S89.5522461,24.8803711,89,24.8803711z"></path><path d="M85.3486328,14.6513672c-0.390625-0.390625-1.0234375-0.390625-1.4140625,0l-2.0297852,2.0297852  c-0.390625,0.390625-0.390625,1.0234375,0,1.4140625c0.1953125,0.1953125,0.4511719,0.2929688,0.7070312,0.2929688  s0.5117188-0.0976562,0.7070312-0.2929688l2.0297852-2.0297852C85.7392578,15.6748047,85.7392578,15.0419922,85.3486328,14.6513672z  "></path></svg>