<svg height='100px' width='100px'  fill="#C6168D" xmlns="http://www.w3.org/2000/svg" xmlns:xlink="http://www.w3.org/1999/xlink" version="1.1" x="0px" y="0px" viewBox="0 0 100 100" style="enable-background:new 0 0 100 100;" xml:space="preserve"><path d="M11,22.8925781c0.5527344,0,1-0.4477539,1-1c0-1.3266602,1.0791016-2.4057617,2.4052734-2.4057617  c0.1992188,0,0.4130859,0.0356445,0.6748047,0.112793c0.3339844,0.0976562,0.7001953,0.0136719,0.9599609-0.2241211  c0.2578125-0.237793,0.3730469-0.59375,0.3017578-0.9379883c-0.0498047-0.2373047-0.0742188-0.4790039-0.0742188-0.7182617  c0-1.9389648,1.5771484-3.5166016,3.5166016-3.5166016s3.5166016,1.5776367,3.5166016,3.5166016l-0.0087891,0.1542969  c-0.0195312,0.4428711,0.2548828,0.8457031,0.6738281,0.9897461c0.9746094,0.3344727,1.6298828,1.2436523,1.6298828,2.2617188  c0,0.5522461,0.4472656,1,1,1h5.1826172c0.5527344,0,1-0.4477539,1-1s-0.4472656-1-1-1h-4.2988281  c-0.2861328-1.215332-1.0849609-2.2617188-2.1972656-2.8618164c-0.2324219-2.8291016-2.609375-5.0605469-5.4980469-5.0605469  c-2.9648438,0-5.390625,2.3505859-5.5117188,5.2861328C11.9042969,17.5595703,10,19.5078125,10,21.8925781  C10,22.4448242,10.4472656,22.8925781,11,22.8925781z"></path><path d="M87.2011719,16.1567383C86.9853516,12.7255859,84.1259766,10,80.640625,10  c-3.6064453,0-6.5439453,2.9199219-6.5722656,6.5200195c-2.9033203-0.0292969-5.265625,2.3115234-5.265625,5.2011719  c0,0.5522461,0.4472656,1,1,1s1-0.4477539,1-1c0-1.765625,1.4365234-3.2016602,3.2021484-3.2016602  c0.2695312,0,0.5537109,0.046875,0.8964844,0.1479492c0.3388672,0.1010742,0.7011719,0.0151367,0.9599609-0.2226562  s0.3730469-0.5932617,0.3027344-0.9370117c-0.0634766-0.3100586-0.0957031-0.625-0.0957031-0.9350586  C76.0683594,14.0512695,78.1191406,12,80.640625,12s4.5732422,2.0512695,4.5683594,4.6601562  c0,0.0073242-0.0058594,0.1015625-0.0068359,0.1088867c-0.0214844,0.4443359,0.2539062,0.8491211,0.6738281,0.9936523  c1.2978516,0.4453125,2.1689453,1.6557617,2.1689453,3.0117188c0,0.5522461,0.4472656,1,1,1s1-0.4477539,1-1  C90.0449219,18.8100586,88.9277344,17.034668,87.2011719,16.1567383z"></path><path d="M11,90h78c0.5527344,0,1-0.4477539,1-1s-0.4472656-1-1-1h-3.8554688v-3.4423828H89  c0.3261719,0,0.6318359-0.1591797,0.8193359-0.4267578c0.1875-0.2670898,0.2324219-0.6088867,0.1201172-0.9155273  l-1.9859619-5.4515381c0.2666016-0.048645,0.5065918-0.1984253,0.6578369-0.4293213  c0.1855469-0.2817383,0.2158203-0.6376953,0.0810547-0.9467773l-3.6308594-8.3549805  c-0.1582031-0.3652344-0.5185547-0.6015625-0.9169922-0.6015625s-0.7587891,0.2363281-0.9169922,0.6015625l-3.6308594,8.3549805  c-0.1347656,0.309082-0.1044922,0.6650391,0.0810547,0.9467773c0.1512451,0.230896,0.3912354,0.3806763,0.6578369,0.4293213  l-1.9859619,5.4515381c-0.1123047,0.3066406-0.0673828,0.6484375,0.1201172,0.9155273  c0.1875,0.2675781,0.4931641,0.4267578,0.8193359,0.4267578h3.8554688V88H71.6347656V26.875c0-0.5522461-0.4472656-1-1-1H45.6357422  c-0.5527344,0-1,0.4477539-1,1v10.6748047h-4.4765625c-0.3046875-1.4887695-1.2753906-2.7719727-2.6425781-3.4741211  c-0.21875-3.3168945-2.9873047-5.9482422-6.3583984-5.9482422c-3.4833984,0-6.3232422,2.8115234-6.3701172,6.284668  c-2.7929688-0.0454102-5.0771484,2.2568359-5.0771484,5.0507812c0,0.5522461,0.4472656,1,1,1s1-0.4477539,1-1  c0-1.6821289,1.3681641-3.0507812,3.0507812-3.0507812c0.2558594,0,0.5273438,0.0449219,0.8554688,0.1416016  c0.3349609,0.0986328,0.7001953,0.0131836,0.9599609-0.2241211c0.2578125-0.237793,0.3730469-0.5942383,0.3017578-0.9379883  c-0.0605469-0.293457-0.0917969-0.5932617-0.0917969-0.8920898c0-2.4106445,1.9609375-4.3720703,4.3710938-4.3720703  c2.4111328,0,4.3720703,1.9614258,4.3720703,4.3720703l-0.0107422,0.1855469  c-0.0214844,0.4448242,0.2529297,0.8510742,0.6738281,0.9956055c1.2363281,0.4243164,2.0664062,1.5776367,2.0664062,2.8691406  c0,0.5522461,0.4472656,1,1,1h5.3759766v6.1479492H29.3652344c-0.5527344,0-1,0.4477539-1,1V88H16.8554688v-3.4423828h3.8554688  c0.3261719,0,0.6318359-0.1591797,0.8193359-0.4267578c0.1875-0.2670898,0.2324219-0.6088867,0.1201172-0.9155273  l-1.9859619-5.4515381c0.2666016-0.048645,0.5065918-0.1984253,0.6578369-0.4293213  c0.1855469-0.2817383,0.2158203-0.6376953,0.0810547-0.9467773l-3.6308594-8.3549805  c-0.1582031-0.3652344-0.5185547-0.6015625-0.9169922-0.6015625s-0.7587891,0.2363281-0.9169922,0.6015625l-3.6308594,8.3549805  c-0.1347656,0.309082-0.1044922,0.6650391,0.0810547,0.9467773c0.1512451,0.230896,0.3912354,0.3806763,0.6578369,0.4293213  l-1.9859619,5.4515381c-0.1123047,0.3066406-0.0673828,0.6484375,0.1201172,0.9155273  c0.1875,0.2675781,0.4931641,0.4267578,0.8193359,0.4267578h3.8554688V88H11c-0.5527344,0-1,0.4477539-1,1S10.4472656,90,11,90z   M84.1445312,70.9399414L86.25,75.7861328h-4.2109375L84.1445312,70.9399414z M80.7177734,82.5576172l1.7380371-4.7714844h3.3774414  l1.7380371,4.7714844H80.7177734z M62.53125,88h-8.7919922v-8.2197266H62.53125V88z M46.6357422,27.875h22.9990234V88H64.53125  v-9.2197266c0-0.5522461-0.4472656-1-1-1H52.7392578c-0.5527344,0-1,0.4477539-1,1V88h-5.1035156V27.875z M30.3652344,47.6977539  h14.2705078V88H30.3652344V47.6977539z M15.8554688,70.9399414l2.1054688,4.8461914H13.75L15.8554688,70.9399414z   M12.4287109,82.5576172l1.7379761-4.7714844h3.3775635l1.7379761,4.7714844H12.4287109z"></path><path d="M35.0341797,50.9418945c-0.5527344,0-1,0.4477539-1,1v2.5947266c0,0.5522461,0.4472656,1,1,1s1-0.4477539,1-1v-2.5947266  C36.0341797,51.3896484,35.5869141,50.9418945,35.0341797,50.9418945z"></path><path d="M39.9580078,50.9418945c-0.5527344,0-1,0.4477539-1,1v2.5947266c0,0.5522461,0.4472656,1,1,1s1-0.4477539,1-1v-2.5947266  C40.9580078,51.3896484,40.5107422,50.9418945,39.9580078,50.9418945z"></path><path d="M35.0341797,58.3183594c-0.5527344,0-1,0.4477539-1,1v2.5947266c0,0.5522461,0.4472656,1,1,1s1-0.4477539,1-1v-2.5947266  C36.0341797,58.7661133,35.5869141,58.3183594,35.0341797,58.3183594z"></path><path d="M39.9580078,58.3183594c-0.5527344,0-1,0.4477539-1,1v2.5947266c0,0.5522461,0.4472656,1,1,1s1-0.4477539,1-1v-2.5947266  C40.9580078,58.7661133,40.5107422,58.3183594,39.9580078,58.3183594z"></path><path d="M35.0341797,65.6943359c-0.5527344,0-1,0.4477539-1,1v2.5947266c0,0.5522461,0.4472656,1,1,1s1-0.4477539,1-1v-2.5947266  C36.0341797,66.1420898,35.5869141,65.6943359,35.0341797,65.6943359z"></path><path d="M39.9580078,65.6943359c-0.5527344,0-1,0.4477539-1,1v2.5947266c0,0.5522461,0.4472656,1,1,1s1-0.4477539,1-1v-2.5947266  C40.9580078,66.1420898,40.5107422,65.6943359,39.9580078,65.6943359z"></path><path d="M35.0341797,73.0703125c-0.5527344,0-1,0.4477539-1,1v2.5947266c0,0.5522461,0.4472656,1,1,1s1-0.4477539,1-1v-2.5947266  C36.0341797,73.5180664,35.5869141,73.0703125,35.0341797,73.0703125z"></path><path d="M39.9580078,73.0703125c-0.5527344,0-1,0.4477539-1,1v2.5947266c0,0.5522461,0.4472656,1,1,1s1-0.4477539,1-1v-2.5947266  C40.9580078,73.5180664,40.5107422,73.0703125,39.9580078,73.0703125z"></path><path d="M35.0341797,80.4462891c-0.5527344,0-1,0.4477539-1,1v2.5947266c0,0.5522461,0.4472656,1,1,1s1-0.4477539,1-1v-2.5947266  C36.0341797,80.894043,35.5869141,80.4462891,35.0341797,80.4462891z"></path><path d="M39.9580078,80.4462891c-0.5527344,0-1,0.4477539-1,1v2.5947266c0,0.5522461,0.4472656,1,1,1s1-0.4477539,1-1v-2.5947266  C40.9580078,80.894043,40.5107422,80.4462891,39.9580078,80.4462891z"></path><path d="M52.5244141,52.2905273c0.5527344,0,1-0.4477539,1-1v-2.6147461c0-0.5522461-0.4472656-1-1-1s-1,0.4477539-1,1v2.6147461  C51.5244141,51.8427734,51.9716797,52.2905273,52.5244141,52.2905273z"></path><path d="M57.8398438,52.2905273c0.5527344,0,1-0.4477539,1-1v-2.6147461c0-0.5522461-0.4472656-1-1-1s-1,0.4477539-1,1v2.6147461  C56.8398438,51.8427734,57.2871094,52.2905273,57.8398438,52.2905273z"></path><path d="M52.5244141,59.7231445c0.5527344,0,1-0.4477539,1-1v-2.6147461c0-0.5522461-0.4472656-1-1-1s-1,0.4477539-1,1v2.6147461  C51.5244141,59.2753906,51.9716797,59.7231445,52.5244141,59.7231445z"></path><path d="M57.8398438,59.7231445c0.5527344,0,1-0.4477539,1-1v-2.6147461c0-0.5522461-0.4472656-1-1-1s-1,0.4477539-1,1v2.6147461  C56.8398438,59.2753906,57.2871094,59.7231445,57.8398438,59.7231445z"></path><path d="M63.3964844,52.2905273c0.5527344,0,1-0.4477539,1-1v-2.6147461c0-0.5522461-0.4472656-1-1-1s-1,0.4477539-1,1v2.6147461  C62.3964844,51.8427734,62.84375,52.2905273,63.3964844,52.2905273z"></path><path d="M63.3964844,59.7231445c0.5527344,0,1-0.4477539,1-1v-2.6147461c0-0.5522461-0.4472656-1-1-1s-1,0.4477539-1,1v2.6147461  C62.3964844,59.2753906,62.84375,59.7231445,63.3964844,59.7231445z"></path><path d="M52.5244141,67.1557617c0.5527344,0,1-0.4477539,1-1v-2.6142578c0-0.5522461-0.4472656-1-1-1s-1,0.4477539-1,1v2.6142578  C51.5244141,66.7080078,51.9716797,67.1557617,52.5244141,67.1557617z"></path><path d="M57.8398438,67.1557617c0.5527344,0,1-0.4477539,1-1v-2.6142578c0-0.5522461-0.4472656-1-1-1s-1,0.4477539-1,1v2.6142578  C56.8398438,66.7080078,57.2871094,67.1557617,57.8398438,67.1557617z"></path><path d="M63.3964844,67.1557617c0.5527344,0,1-0.4477539,1-1v-2.6142578c0-0.5522461-0.4472656-1-1-1s-1,0.4477539-1,1v2.6142578  C62.3964844,66.7080078,62.84375,67.1557617,63.3964844,67.1557617z"></path><path d="M52.5244141,37.425293c0.5527344,0,1-0.4477539,1-1v-2.6147461c0-0.5522461-0.4472656-1-1-1s-1,0.4477539-1,1v2.6147461  C51.5244141,36.9775391,51.9716797,37.425293,52.5244141,37.425293z"></path><path d="M57.8398438,37.425293c0.5527344,0,1-0.4477539,1-1v-2.6147461c0-0.5522461-0.4472656-1-1-1s-1,0.4477539-1,1v2.6147461  C56.8398438,36.9775391,57.2871094,37.425293,57.8398438,37.425293z"></path><path d="M63.3964844,37.425293c0.5527344,0,1-0.4477539,1-1v-2.6147461c0-0.5522461-0.4472656-1-1-1s-1,0.4477539-1,1v2.6147461  C62.3964844,36.9775391,62.84375,37.425293,63.3964844,37.425293z"></path><path d="M52.5244141,44.8579102c0.5527344,0,1-0.4477539,1-1v-2.6147461c0-0.5522461-0.4472656-1-1-1s-1,0.4477539-1,1v2.6147461  C51.5244141,44.4101562,51.9716797,44.8579102,52.5244141,44.8579102z"></path><path d="M57.8398438,44.8579102c0.5527344,0,1-0.4477539,1-1v-2.6147461c0-0.5522461-0.4472656-1-1-1s-1,0.4477539-1,1v2.6147461  C56.8398438,44.4101562,57.2871094,44.8579102,57.8398438,44.8579102z"></path><path d="M63.3964844,44.8579102c0.5527344,0,1-0.4477539,1-1v-2.6147461c0-0.5522461-0.4472656-1-1-1s-1,0.4477539-1,1v2.6147461  C62.3964844,44.4101562,62.84375,44.8579102,63.3964844,44.8579102z"></path></svg>