<svg height='100px' width='100px'  fill="#C6168D" xmlns="http://www.w3.org/2000/svg" xmlns:xlink="http://www.w3.org/1999/xlink" version="1.1" x="0px" y="0px" viewBox="0 0 100 100" style="enable-background:new 0 0 100 100;" xml:space="preserve"><path d="M75.5507812,89V66.0771484c0-0.5527344-0.4472656-1-1-1h-5.7783203V33.625c0-0.5527344-0.4472656-1-1-1h-4.859375  V19.5732422c0-0.3212891-0.1542969-0.6240234-0.4160156-0.8115234l-11.9130859-8.5732422  c-0.3496094-0.2519531-0.8183594-0.2519531-1.1679688,0l-11.9140625,8.5732422  c-0.2617188,0.1875-0.4160156,0.4902344-0.4160156,0.8115234V32.625h-4.8583984c-0.5527344,0-1,0.4472656-1,1v31.4521484h-5.7783203  c-0.5527344,0-1,0.4472656-1,1V89c0,0.5527344,0.4472656,1,1,1h49.1015625C75.1035156,90,75.5507812,89.5527344,75.5507812,89z   M39.0859375,20.0859375L50,12.2324219l10.9130859,7.8535156V32.625H39.0859375V20.0859375z M33.2275391,34.625h33.5449219  v30.4521484H33.2275391V34.625z M45.5517578,88H34.0195312v-7.546875c0-3.2128906,2.5869141-5.8261719,5.7666016-5.8261719  c3.1787109,0,5.765625,2.6132812,5.765625,5.8261719V88z M65.9794922,88h-11.53125v-7.546875  c0-3.2128906,2.5869141-5.8261719,5.765625-5.8261719s5.765625,2.6132812,5.765625,5.8261719V88z M73.5507812,88h-5.5712891  v-7.546875c0-4.3154297-3.4833984-7.8261719-7.765625-7.8261719s-7.765625,3.5107422-7.765625,7.8261719V88h-4.8964844v-7.546875  c0-4.3154297-3.4833984-7.8261719-7.765625-7.8261719s-7.7666016,3.5107422-7.7666016,7.8261719V88h-5.5703125V67.0771484  h47.1015625V88z"></path><path d="M43.7539062,51.796875c-2.4169922,0-4.3828125,1.9794922-4.3828125,4.4130859v3.9384766c0,0.5527344,0.4472656,1,1,1  h6.765625c0.5527344,0,1-0.4472656,1-1v-3.9384766C48.1367188,53.7763672,46.1708984,51.796875,43.7539062,51.796875z   M46.1367188,59.1484375h-4.765625v-2.9384766c0-1.3310547,1.0693359-2.4130859,2.3828125-2.4130859  s2.3828125,1.0820312,2.3828125,2.4130859V59.1484375z"></path><path d="M43.7539062,39.0625c-2.4169922,0-4.3828125,1.9794922-4.3828125,4.4130859v3.9375c0,0.5527344,0.4472656,1,1,1h6.765625  c0.5527344,0,1-0.4472656,1-1v-3.9375C48.1367188,41.0419922,46.1708984,39.0625,43.7539062,39.0625z M46.1367188,46.4130859  h-4.765625v-2.9375c0-1.3310547,1.0693359-2.4130859,2.3828125-2.4130859s2.3828125,1.0820312,2.3828125,2.4130859V46.4130859z"></path><path d="M56.2460938,51.796875c-2.4169922,0-4.3837891,1.9794922-4.3837891,4.4130859v3.9384766c0,0.5527344,0.4472656,1,1,1  h6.7666016c0.5527344,0,1-0.4472656,1-1v-3.9384766C60.6289062,53.7763672,58.6630859,51.796875,56.2460938,51.796875z   M58.6289062,59.1484375h-4.7666016v-2.9384766c0-1.3310547,1.0693359-2.4130859,2.3837891-2.4130859  c1.3134766,0,2.3828125,1.0820312,2.3828125,2.4130859V59.1484375z"></path><path d="M56.2460938,39.0625c-2.4169922,0-4.3837891,1.9794922-4.3837891,4.4130859v3.9375c0,0.5527344,0.4472656,1,1,1h6.7666016  c0.5527344,0,1-0.4472656,1-1v-3.9375C60.6289062,41.0419922,58.6630859,39.0625,56.2460938,39.0625z M58.6289062,46.4130859  h-4.7666016v-2.9375c0-1.3310547,1.0693359-2.4130859,2.3837891-2.4130859c1.3134766,0,2.3828125,1.0820312,2.3828125,2.4130859  V46.4130859z"></path><path d="M50,18.8613281c-2.4169922,0-4.3828125,1.9794922-4.3828125,4.4130859v3.9384766c0,0.5527344,0.4472656,1,1,1h6.765625  c0.5527344,0,1-0.4472656,1-1v-3.9384766C54.3828125,20.8408203,52.4169922,18.8613281,50,18.8613281z M52.3828125,26.2128906  h-4.765625v-2.9384766c0-1.3310547,1.0693359-2.4130859,2.3828125-2.4130859s2.3828125,1.0820312,2.3828125,2.4130859V26.2128906z"></path></svg>