<svg height='100px' width='100px'  fill="#C6168D" xmlns="http://www.w3.org/2000/svg" xmlns:xlink="http://www.w3.org/1999/xlink" version="1.1" x="0px" y="0px" viewBox="0 0 100 100" style="enable-background:new 0 0 100 100;" xml:space="preserve"><path d="M89.125,70.1943359h-0.8823242V11c0-0.5527344-0.4477539-1-1-1H74.1079102c-0.5522461,0-1,0.4472656-1,1v5.9726562  H61.2177734V11c0-0.5527344-0.4477539-1-1-1h-16.715332c-0.5522461,0-1,0.4472656-1,1v5.9726562H28.9223633V11  c0-0.5527344-0.4477539-1-1-1H12.6318359c-0.5522461,0-1,0.4472656-1,1v59.1943359H11c-0.5522461,0-1,0.4472656-1,1v8.8242188  c0,0.5527344,0.4477539,1,1,1h5.034668V89c0,0.5527344,0.4477539,1,1,1h8.637207c0.5522461,0,1-0.4472656,1-1v-7.9814453h46.78125  V89c0,0.5527344,0.4477539,1,1,1h8.637207c0.5522461,0,1-0.4472656,1-1v-7.9814453H89.125c0.5522461,0,1-0.4472656,1-1v-8.8242188  C90.125,70.6416016,89.6772461,70.1943359,89.125,70.1943359z M86.2426758,12v58.1943359H75.1079102V12H86.2426758z   M73.1079102,18.9726562v51.2216797H61.2177734V18.9726562H73.1079102z M59.2177734,12v58.1943359h-14.715332V12H59.2177734z   M42.5024414,18.9726562v51.2216797H28.9223633V18.9726562H42.5024414z M13.6318359,12h13.2905273v58.1943359H13.6318359V12z   M24.671875,88h-6.637207v-6.9814453h6.637207V88z M82.090332,88h-6.637207v-6.9814453h6.637207V88z M88.125,79.0185547H12  v-6.8242188h76.125V79.0185547z"></path><path d="M23.4360352,62.5019531h-6.1650391c-0.5522461,0-1,0.4472656-1,1s0.4477539,1,1,1h6.1650391c0.5522461,0,1-0.4472656,1-1  S23.9882812,62.5019531,23.4360352,62.5019531z"></path><path d="M17.2709961,59.6582031h6.1650391c0.5522461,0,1-0.4472656,1-1s-0.4477539-1-1-1h-6.1650391c-0.5522461,0-1,0.4472656-1,1  S16.71875,59.6582031,17.2709961,59.6582031z"></path><path d="M78.7407227,64.5019531h3.7167969c0.5522461,0,1-0.4472656,1-1s-0.4477539-1-1-1h-3.7167969c-0.5522461,0-1,0.4472656-1,1  S78.1884766,64.5019531,78.7407227,64.5019531z"></path><path d="M78.7407227,59.6582031h3.7167969c0.5522461,0,1-0.4472656,1-1s-0.4477539-1-1-1h-3.7167969c-0.5522461,0-1,0.4472656-1,1  S78.1884766,59.6582031,78.7407227,59.6582031z"></path><path d="M69.2397461,62.5019531h-3.7167969c-0.5522461,0-1,0.4472656-1,1s0.4477539,1,1,1h3.7167969c0.5522461,0,1-0.4472656,1-1  S69.7919922,62.5019531,69.2397461,62.5019531z"></path><path d="M65.5229492,59.6582031h3.7167969c0.5522461,0,1-0.4472656,1-1s-0.4477539-1-1-1h-3.7167969c-0.5522461,0-1,0.4472656-1,1  S64.9707031,59.6582031,65.5229492,59.6582031z"></path><path d="M38.2587891,28.59375h-5.0927734c-0.5522461,0-1,0.4472656-1,1s0.4477539,1,1,1h5.0927734c0.5522461,0,1-0.4472656,1-1  S38.8110352,28.59375,38.2587891,28.59375z"></path><path d="M33.1660156,25.75h5.0927734c0.5522461,0,1-0.4472656,1-1s-0.4477539-1-1-1h-5.0927734c-0.5522461,0-1,0.4472656-1,1  S32.6137695,25.75,33.1660156,25.75z"></path></svg>