<svg height='100px' width='100px'  fill="#C6168D" xmlns="http://www.w3.org/2000/svg" xmlns:xlink="http://www.w3.org/1999/xlink" version="1.1" x="0px" y="0px" viewBox="0 0 100 100" style="enable-background:new 0 0 100 100;" xml:space="preserve"><path d="M28.0566406,90c9.9560547,0,18.0566406-8.1000977,18.0566406-18.0566406  c0-4.0621338-1.3647461-7.8024902-3.6375732-10.8225708l7.5662842-5.0128784l7.8989258,4.4561768  c-2.5310059,3.1082153-4.0541992,7.0679932-4.0541992,11.3792725C53.8867188,81.8999023,61.9873047,90,71.9433594,90  S90,81.8999023,90,71.9433594c0-9.9560547-8.1005859-18.0561523-18.0566406-18.0561523  c-4.9074707,0-9.3585205,1.9741211-12.6164551,5.1624146L51,54.3519897V46.397644  c0.0045166,0.000061,0.0091553,0.0012817,0.0136719,0.0012817c0.0585938,0,0.1124268-0.0197144,0.1689453-0.0296631  c6.1450195-0.397644,11.4580078-3.8458252,14.4489746-8.8519287c0.0957031-0.1014404,0.1665039-0.2205811,0.2128906-0.3499146  c1.501709-2.6470337,2.3703613-5.697937,2.3703613-8.9525757c0-2.0352173-0.3500977-3.9865723-0.96875-5.8156128  c-0.017334-0.0452271-0.0195312-0.0930176-0.0439453-0.1365356c-0.0028076-0.0050049-0.0079346-0.0076294-0.0107422-0.0125732  c-1.6588135-4.7655029-5.2335205-8.6334229-9.8088379-10.6720581c-0.0437012-0.0220947-0.0837402-0.0473022-0.130127-0.0628052  C55.0279541,10.5453491,52.5776367,10,50,10c-10.0439453,0-18.2148438,8.1713867-18.2148438,18.2148438  c0,2.5599365,0.5362549,4.9951172,1.4936523,7.2074585c0.0148926,0.0438232,0.038208,0.0809326,0.0588379,0.1218262  C36.036377,41.6546631,41.9956055,45.9953613,49,46.37854v8.0203857l-7.8198242,5.1807861  c-3.2949219-3.4953003-7.9525146-5.6925049-13.1235352-5.6925049C18.1005859,53.887207,10,61.9873047,10,71.9433594  C10,81.8999023,18.1005859,90,28.0566406,90z M62.1719971,84.6552124c0.0941162-4.2414551,2.8498535-7.895752,6.9266357-9.133728  c0.3847656-0.1171875,0.6630859-0.4545898,0.7041016-0.8554688s-0.1630859-0.7871094-0.5166016-0.9799805  c-1.9394531-1.0556641-3.1435547-3.0810547-3.1435547-5.2861328c0-3.3168945,2.6982422-6.0151367,6.0146484-6.0151367  s6.0146484,2.6982422,6.0146484,6.0151367c0,2.2709961-1.2617188,4.3242188-3.2939453,5.3583984  c-0.359375,0.1831055-0.5732422,0.5639648-0.5429688,0.9667969c0.0302734,0.4023438,0.2998047,0.746582,0.6826172,0.8735352  c3.9396973,1.3050537,6.6037598,4.9274292,6.6972656,9.0565186C79.0043945,86.7434692,75.621582,88,71.9433594,88  S64.8823242,86.7435303,62.1719971,84.6552124z M71.9433594,55.887207C80.796875,55.887207,88,63.0898438,88,71.9433594  c0,4.2802124-1.6938477,8.164856-4.4335938,11.0462036c-0.5911865-3.6575317-2.8688965-6.8247681-6.1533203-8.5413208  c1.7353516-1.5004883,2.7587891-3.6855469,2.7587891-6.0483398c0-4.4194336-3.5957031-8.0151367-8.0146484-8.0151367  s-8.0146484,3.5957031-8.0146484,8.0151367c0,2.2753906,0.9619141,4.4072266,2.5957031,5.90625  c-3.4362793,1.6779175-5.817749,4.9024048-6.4206543,8.680603c-2.7380371-2.8810425-4.4309082-6.7645874-4.4309082-11.043396  C55.8867188,63.0898438,63.0898438,55.887207,71.9433594,55.887207z M52.0883789,44.2790527  c-0.0566406-2.2770996-1.1228027-4.5969238-1.1489258-4.6472168c-0.0175781-0.0478516-1.7216797-4.8232422,0.4179688-7.5532227  c2.0605469-2.6318359,4.6298828-1.8959961,4.7314453-1.8657227c0.0556641,0.0175781,0.1123047,0.0307617,0.1699219,0.0385742  c0.0474854,0.0061646,4.6464844,0.7084961,7.4960938,6.5077515C61.239502,40.7931519,57.0114746,43.6416626,52.0883789,44.2790527z   M65.0588379,22.2371216c-1.2521973,0.479126-3.6311035,0.9642334-5.7912598-1.0061646  c-1.0859375-0.9907227-2.2314453-1.1191406-3.1523438-1.222168c-1.1572266-0.1298828-1.7939453-0.2011719-2.4130859-1.7797852  c-0.8641357-2.2059937,2.107666-4.0457764,3.232666-4.6490479C60.619751,15.3335571,63.5405273,18.4267578,65.0588379,22.2371216z   M44.6638184,12.9208374c0.8510742,0.7212524,2.2314453,2.1452026,2.4436035,3.5391235  c0.0898438,0.5957031-0.0478516,1.1303711-0.4228516,1.6352539c-2.4765625,3.3359375-3.0224609,4.3696289-3.1806641,7.7421875  c-0.1810303,3.8682861-1.3562012,8.2523804-8.5964355,8.2628174c-0.71521-1.8272095-1.1223145-3.8078613-1.1223145-5.885376  C33.7851562,21.1454468,38.3405762,15.1343384,44.6638184,12.9208374z M35.833252,36.0819702  c6.1125488-0.317688,9.3676758-3.7211304,9.6687012-10.1508179c0.1347656-2.8911133,0.4765625-3.5292969,2.7880859-6.6435547  c0.6992188-0.9418945,0.9667969-1.9941406,0.7939453-3.1279297c-0.2329102-1.5324707-1.2629395-2.9072876-2.1704102-3.8567505  C47.9138184,12.1091919,48.9439697,12,50,12c1.6000977,0,3.1430664,0.2418213,4.604248,0.6755981  c-1.7468262,1.2360229-3.8839111,3.4240112-2.7634277,6.2828979c1.0585938,2.7021484,2.7177734,2.8881836,4.0517578,3.0375977  c0.7939453,0.0893555,1.4208984,0.159668,2.0273438,0.7124023c1.5527344,1.4169922,3.3076172,1.9462891,4.9501953,1.9458008  c1.0030518,0,1.9553223-0.2073975,2.8040771-0.5204468c0.3406982,1.3065186,0.5406494,2.6692505,0.5406494,4.0809937  c0,2.2820435-0.479126,4.4526367-1.3337402,6.4243164c-3.138916-5.2891235-7.5881348-6.2424316-8.2727051-6.3574219  c-0.6103516-0.1655273-4.0947266-0.9228516-6.8251953,2.5634766c-2.8300781,3.6108398-0.8095703,9.237793-0.6894531,9.5527344  c0.310791,0.6687012,0.9855957,2.4960327,0.994873,4.0267334C50.0587158,44.4248657,50.0299072,44.4291992,50,44.4291992  C43.9140625,44.4291992,38.6060791,41.0545044,35.833252,36.0819702z M18.2852783,84.6552124  c0.0941162-4.2414551,2.8498535-7.895752,6.9266357-9.133728c0.3847656-0.1171875,0.6630859-0.4545898,0.7041016-0.8554688  s-0.1630859-0.7871094-0.5166016-0.9799805c-1.9394531-1.0556641-3.1445312-3.081543-3.1445312-5.2861328  c0-3.3168945,2.6982422-6.0151367,6.015625-6.0151367c3.3164062,0,6.0146484,2.6982422,6.0146484,6.0151367  c0,2.2705078-1.2617188,4.3237305-3.2939453,5.3583984c-0.359375,0.1831055-0.5732422,0.5644531-0.5429688,0.9667969  s0.2998047,0.746582,0.6826172,0.8735352c3.9396973,1.3050537,6.6037598,4.9274292,6.6972656,9.0565186  C35.1176758,86.7434692,31.7348633,88,28.0566406,88S20.9956055,86.7435303,18.2852783,84.6552124z M28.0566406,55.887207  c8.8535156,0,16.0566406,7.2026367,16.0566406,16.0561523c0,4.2802124-1.6938477,8.164856-4.4335938,11.0462036  c-0.5911865-3.6575317-2.8688965-6.8248291-6.1533203-8.5418091c1.7353516-1.5004883,2.7587891-3.6855469,2.7587891-6.0478516  c0-4.4194336-3.5957031-8.0151367-8.0146484-8.0151367c-4.4199219,0-8.015625,3.5957031-8.015625,8.0151367  c0,2.2749023,0.9628906,4.4072266,2.5966797,5.90625c-3.4362793,1.6779175-5.817749,4.9024048-6.4206543,8.680603  C13.6928711,80.1057129,12,76.222168,12,71.9433594C12,63.0898438,19.203125,55.887207,28.0566406,55.887207z"></path></svg>