<svg height='100px' width='100px'  fill="#C6168D" xmlns="http://www.w3.org/2000/svg" xmlns:xlink="http://www.w3.org/1999/xlink" version="1.1" x="0px" y="0px" viewBox="0 0 100 100" style="enable-background:new 0 0 100 100;" xml:space="preserve"><path d="M89.9658203,39.2910156c-0.0825195-0.3085938-0.3071289-0.5585938-0.6049805-0.6738281l-11.7592773-4.5527344  l1.9365234-12.4609375c0.0488281-0.3154297-0.0556641-0.6347656-0.28125-0.8603516  c-0.2250977-0.2255859-0.5419922-0.3291016-0.8608398-0.28125l-12.4599609,1.9375l-4.5532227-11.7607422  c-0.1152344-0.296875-0.3657227-0.5224609-0.6738281-0.6044922c-0.3081055-0.0849609-0.6376953-0.0126953-0.8857422,0.1865234  L50,18.1279297l-9.8232422-7.9072266c-0.2485352-0.1992188-0.5766602-0.2714844-0.8857422-0.1865234  c-0.3081055,0.0820312-0.5585938,0.3076172-0.6738281,0.6044922l-4.5532227,11.7607422l-12.4599609-1.9375  c-0.3168945-0.0507812-0.6357422,0.0546875-0.8608398,0.28125c-0.2255859,0.2255859-0.3300781,0.5449219-0.28125,0.8603516  l1.9365234,12.4609375l-11.7592773,4.5527344c-0.2978516,0.1152344-0.5224609,0.3652344-0.6049805,0.6738281  s-0.0131836,0.6376953,0.1870117,0.8857422L18.128418,50l-7.9072266,9.8232422  c-0.2001953,0.2480469-0.2695312,0.5771484-0.1870117,0.8857422s0.3071289,0.5585938,0.6049805,0.6738281l11.7592773,4.5527344  l-1.9365234,12.4609375c-0.0488281,0.3154297,0.0556641,0.6347656,0.28125,0.8603516s0.5429688,0.3300781,0.8608398,0.28125  l12.4599609-1.9375l4.5532227,11.7607422c0.1152344,0.296875,0.3657227,0.5224609,0.6738281,0.6044922  c0.309082,0.0849609,0.637207,0.0136719,0.8857422-0.1865234L50,81.8720703l9.8232422,7.9072266  C60.0029297,89.9238281,60.2246094,90,60.4501953,90c0.0864258,0,0.1733398-0.0107422,0.2587891-0.0341797  c0.3081055-0.0820312,0.5585938-0.3076172,0.6738281-0.6044922l4.5532227-11.7607422l12.4599609,1.9375  c0.3164062,0.046875,0.6352539-0.0556641,0.8608398-0.28125s0.3300781-0.5449219,0.28125-0.8603516l-1.9365234-12.4609375  l11.7592773-4.5527344c0.2978516-0.1152344,0.5224609-0.3652344,0.6049805-0.6738281s0.0131836-0.6376953-0.1870117-0.8857422  L81.871582,50l7.9072266-9.8232422C89.9790039,39.9287109,90.0483398,39.5996094,89.9658203,39.2910156z M79.809082,49.3730469  c-0.2949219,0.3662109-0.2949219,0.8876953,0,1.2539062l7.5541992,9.3847656l-11.234375,4.3496094  c-0.4384766,0.1699219-0.699707,0.6220703-0.6274414,1.0859375l1.8500977,11.9042969l-11.9038086-1.8505859  c-0.4663086-0.0722656-0.9169922,0.1884766-1.0864258,0.6269531l-4.3496094,11.2353516l-9.3847656-7.5546875  C50.4438477,79.6611328,50.222168,79.5878906,50,79.5878906s-0.4438477,0.0732422-0.6269531,0.2207031l-9.3847656,7.5546875  l-4.3496094-11.2353516c-0.1699219-0.4384766-0.621582-0.6992188-1.0864258-0.6269531l-11.9038086,1.8505859l1.8500977-11.9042969  c0.0722656-0.4638672-0.1889648-0.9160156-0.6274414-1.0859375l-11.234375-4.3496094l7.5541992-9.3847656  c0.2949219-0.3662109,0.2949219-0.8876953,0-1.2539062l-7.5541992-9.3847656l11.234375-4.3496094  c0.4384766-0.1699219,0.699707-0.6220703,0.6274414-1.0859375l-1.8500977-11.9042969l11.9038086,1.8505859  c0.4648438,0.0693359,0.9165039-0.1884766,1.0864258-0.6269531l4.3496094-11.2353516l9.3847656,7.5546875  c0.3662109,0.2949219,0.8876953,0.2949219,1.2539062,0l9.3847656-7.5546875l4.3496094,11.2353516  c0.1694336,0.4384766,0.6201172,0.6962891,1.0864258,0.6269531l11.9038086-1.8505859l-1.8500977,11.9042969  c-0.0722656,0.4638672,0.1889648,0.9160156,0.6274414,1.0859375l11.234375,4.3496094L79.809082,49.3730469z"></path><path d="M72.4648438,50c0-9.1655884-5.5205688-17.0620117-13.4089966-20.5517578  c-0.0266724-0.0119019-0.0508423-0.026001-0.0784302-0.0355225C56.2258911,28.2081299,53.1907349,27.5351562,50,27.5351562  c-12.387207,0-22.4648438,10.078125-22.4648438,22.4648438c0,3.1647949,0.6612549,6.177002,1.8474121,8.9107666  c0.0114136,0.0332031,0.0276489,0.0620117,0.0423584,0.0935669C32.9028931,66.9202271,40.8140869,72.4648438,50,72.4648438  c8.3369751,0,15.6222534-4.5686035,19.4987183-11.3301392c0.0061035-0.0143433,0.0177612-0.0256348,0.0231934-0.0402832  C71.3908691,57.8187866,72.4648438,54.0335083,72.4648438,50z M69.0913086,42.6887817  c-1.5412598,0.6393433-4.7770996,1.4536133-7.7016602-1.2151489c-1.2944336-1.1806641-2.6796875-1.3359375-3.7919922-1.4599609  c-1.4873047-0.1669922-2.3847656-0.2675781-3.2104492-2.375c-1.1829224-3.0172729,2.9120483-5.4570923,4.255249-6.1625977  C63.4198608,33.7145386,67.187561,37.7359009,69.0913086,42.6887817z M43.3988037,30.6483154  c1.0765991,0.8937378,2.9542847,2.7919922,3.237915,4.6573486c0.1235352,0.8115234-0.0639648,1.5390625-0.5722656,2.2246094  c-3.0981445,4.171875-3.7226562,5.3525391-3.9179688,9.5166016c-0.2327881,4.9651489-1.7446289,10.5908813-11.1370239,10.5390625  C30.067688,55.2370605,29.5351562,52.6813354,29.5351562,50C29.5351562,41.0276489,35.3479614,33.4031982,43.3988037,30.6483154z   M31.9429932,59.6101685c4.145874-0.06604,11.678833-1.3234863,12.2015381-12.4695435  c0.1713867-3.6513672,0.6459961-4.5400391,3.5253906-8.4189453c0.831543-1.1191406,1.1489258-2.3701172,0.9443359-3.7167969  c-0.3091431-2.0319214-1.7848511-3.8417358-2.9552612-4.9960327C47.0596924,29.704834,48.5096436,29.5351562,50,29.5351562  c2.1981812,0,4.3122559,0.357666,6.2984619,1.0021362c-2.1728516,1.4331055-5.2006836,4.1904297-3.7735596,7.8318481  c1.2661133,3.2304688,3.253418,3.453125,4.8500977,3.6318359c0.9936523,0.1113281,1.8520508,0.2070312,2.6669922,0.9501953  c1.8842773,1.7197266,4.0136719,2.3623047,6.0087891,2.3623047c1.3184814,0,2.5744019-0.2850952,3.6655273-0.7207031  C70.1903687,46.3184204,70.4648438,48.1259155,70.4648438,50c0,3.0471802-0.6879272,5.930603-1.8875122,8.5316772  c-3.8928833-6.9031372-9.5986938-8.0764771-10.3903198-8.2064819c-0.6816406-0.1894531-4.9282227-1.1503906-8.2636719,3.1064453  c-3.4443359,4.3964844-0.96875,11.2861328-0.8295898,11.6552734c0.4108887,0.880188,1.3276367,3.3491821,1.267334,5.3596191  C50.2396851,70.4487305,50.1218872,70.4648438,50,70.4648438C42.1882935,70.4648438,35.390625,66.0616455,31.9429932,59.6101685z   M52.3630981,70.3171387c0.020752-2.8673096-1.3834839-5.9172363-1.4241333-5.9968262  c-0.0224609-0.0615234-2.1953125-6.1396484,0.5585938-9.6542969c2.6806641-3.4238281,6.0336914-2.4521484,6.1694336-2.4091797  c0.0527344,0.0166016,0.1108398,0.0292969,0.1655273,0.0371094c0.2497559,0.0363159,6.0258789,0.9669189,9.5993042,8.3724365  C64.2202148,65.8950806,58.7416992,69.5793457,52.3630981,70.3171387z"></path></svg>