<svg height='100px' width='100px'  fill="#C6168D" xmlns="http://www.w3.org/2000/svg" xmlns:xlink="http://www.w3.org/1999/xlink" version="1.1" x="0px" y="0px" viewBox="0 0 100 100" style="enable-background:new 0 0 100 100;" xml:space="preserve"><path d="M50,22.6733398c3.5107422,0,6.3662109-2.8427734,6.3662109-6.3369141S53.5107422,10,50,10  s-6.3662109,2.8422852-6.3662109,6.3364258S46.4892578,22.6733398,50,22.6733398z M50,12  c2.4072266,0,4.3662109,1.9453125,4.3662109,4.3364258c0,2.3916016-1.9589844,4.3369141-4.3662109,4.3369141  s-4.3662109-1.9453125-4.3662109-4.3369141C45.6337891,13.9453125,47.5927734,12,50,12z"></path><path d="M73.7910156,19.8447266c-0.0058594,0-0.0117188,0-0.0175781,0c-1.6914062,0-3.2783203,0.6567383-4.4716797,1.8500977  c-1.1972656,1.1972656-1.8544922,2.7919922-1.8496094,4.4892578c0.0048828,1.6953125,0.6689453,3.2910156,1.8710938,4.4926758  c1.2011719,1.2021484,2.796875,1.8666992,4.4931641,1.8710938c0.0058594,0,0.0117188,0,0.0175781,0  c1.6914062,0,3.2783203-0.65625,4.4716797-1.8496094c1.1972656-1.1972656,1.8544922-2.7919922,1.8496094-4.4897461  c-0.0048828-1.6953125-0.6689453-3.2910156-1.8710938-4.4926758S75.4873047,19.8496094,73.7910156,19.8447266z   M76.8916016,29.2841797c-0.8154297,0.8154297-1.9003906,1.2636719-3.0576172,1.2636719c-0.0039062,0-0.0078125,0-0.0126953,0  c-1.1630859-0.0029297-2.2587891-0.4594727-3.0839844-1.2851562c-1.7021484-1.7026367-1.7119141-4.4628906-0.0214844-6.1538086  c0.8154297-0.8154297,1.9003906-1.2641602,3.0576172-1.2641602c0.0039062,0,0.0078125,0,0.0126953,0  c1.1630859,0.003418,2.2587891,0.4599609,3.0839844,1.2851562C78.5722656,24.8325195,78.5820312,27.5932617,76.8916016,29.2841797z"></path><path d="M90,50c0-3.5107422-2.8427734-6.3666992-6.3369141-6.3666992c-3.4931641,0-6.3359375,2.855957-6.3359375,6.3666992  s2.8427734,6.3666992,6.3359375,6.3666992C87.1572266,56.3666992,90,53.5107422,90,50z M79.3271484,50  c0-2.4077148,1.9453125-4.3666992,4.3359375-4.3666992C86.0546875,45.6333008,88,47.5922852,88,50  s-1.9453125,4.3666992-4.3369141,4.3666992C81.2724609,54.3666992,79.3271484,52.4077148,79.3271484,50z"></path><path d="M69.3017578,78.3051758c1.1933594,1.1933594,2.7802734,1.8500977,4.4716797,1.8500977c0.0058594,0,0.0117188,0,0.0175781,0  c1.6962891-0.0048828,3.2910156-0.6694336,4.4931641-1.8710938s1.8662109-2.7973633,1.8710938-4.4926758  c0.0048828-1.6977539-0.6523438-3.2924805-1.8496094-4.4897461c-1.1933594-1.1933594-2.7802734-1.8496094-4.4716797-1.8496094  c-0.0058594,0-0.0117188,0-0.0175781,0c-1.6962891,0.0043945-3.2919922,0.6689453-4.4931641,1.8710938  c-1.2021484,1.2016602-1.8662109,2.7973633-1.8710938,4.4926758C67.4472656,75.5131836,68.1044922,77.1079102,69.3017578,78.3051758  z M70.7373047,70.7373047c0.8251953-0.8256836,1.9208984-1.2822266,3.0839844-1.2851562c0.0048828,0,0.0087891,0,0.0126953,0  c1.1572266,0,2.2421875,0.4482422,3.0576172,1.2636719c1.6904297,1.690918,1.6806641,4.4516602-0.0214844,6.1542969  c-0.8251953,0.8251953-1.9208984,1.2817383-3.0839844,1.2851562c-0.0048828,0-0.0087891,0-0.0126953,0  c-1.1572266,0-2.2421875-0.4487305-3.0576172-1.2641602C69.0253906,75.2001953,69.0351562,72.4399414,70.7373047,70.7373047z"></path><path d="M43.6337891,83.6635742C43.6337891,87.1577148,46.4892578,90,50,90s6.3662109-2.8422852,6.3662109-6.3364258  S53.5107422,77.3266602,50,77.3266602S43.6337891,80.1694336,43.6337891,83.6635742z M54.3662109,83.6635742  C54.3662109,86.0546875,52.4072266,88,50,88s-4.3662109-1.9453125-4.3662109-4.3364258  c0-2.3916016,1.9589844-4.3369141,4.3662109-4.3369141S54.3662109,81.2719727,54.3662109,83.6635742z"></path><path d="M19.8447266,73.7915039c0.0048828,1.6953125,0.6689453,3.2910156,1.8710938,4.4926758  s2.796875,1.8662109,4.4931641,1.8710938c0.0058594,0,0.0117188,0,0.0175781,0c1.6914062,0,3.2783203-0.6567383,4.4716797-1.8500977  c1.1972656-1.1972656,1.8544922-2.7919922,1.8496094-4.4892578c-0.0048828-1.6953125-0.6689453-3.2910156-1.8710938-4.4926758  c-1.2011719-1.2021484-2.796875-1.8666992-4.4931641-1.8710938c-1.71875-0.0341797-3.2919922,0.6523438-4.4892578,1.8496094  S19.8398438,72.09375,19.8447266,73.7915039z M23.1083984,70.7158203c0.8154297-0.8154297,1.9003906-1.2636719,3.0576172-1.2636719  c0.0039062,0,0.0078125,0,0.0126953,0c1.1630859,0.0029297,2.2587891,0.4594727,3.0839844,1.2851562  c1.7021484,1.7026367,1.7119141,4.4628906,0.0214844,6.1538086c-0.8154297,0.8154297-1.9003906,1.2641602-3.0576172,1.2641602  c-0.0039062,0-0.0078125,0-0.0126953,0c-1.1630859-0.003418-2.2587891-0.4599609-3.0839844-1.2851562  C21.4277344,75.1674805,21.4179688,72.4067383,23.1083984,70.7158203z"></path><path d="M16.3369141,56.3666992c3.4931641,0,6.3359375-2.855957,6.3359375-6.3666992s-2.8427734-6.3666992-6.3359375-6.3666992  C12.8427734,43.6333008,10,46.4892578,10,50S12.8427734,56.3666992,16.3369141,56.3666992z M16.3369141,45.6333008  c2.390625,0,4.3359375,1.9589844,4.3359375,4.3666992s-1.9453125,4.3666992-4.3359375,4.3666992  C13.9453125,54.3666992,12,52.4077148,12,50S13.9453125,45.6333008,16.3369141,45.6333008z"></path><path d="M26.1660156,32.5478516c0.0058594,0,0.0117188,0,0.0175781,0c1.6962891-0.0043945,3.2919922-0.6689453,4.4931641-1.8710938  c1.2021484-1.2016602,1.8662109-2.7973633,1.8710938-4.4926758c0.0048828-1.6972656-0.6523438-3.2919922-1.8496094-4.4892578  c-1.1933594-1.1933594-2.7802734-1.8500977-4.4716797-1.8500977c-0.0058594,0-0.0117188,0-0.0175781,0  c-1.6962891,0.0048828-3.2910156,0.6694336-4.4931641,1.8710938s-1.8662109,2.7973633-1.8710938,4.4926758  c-0.0048828,1.6977539,0.6523438,3.2924805,1.8496094,4.4897461C22.8876953,31.8916016,24.4746094,32.5478516,26.1660156,32.5478516  z M23.1298828,23.1298828c0.8251953-0.8251953,1.9208984-1.2817383,3.0839844-1.2851562c0.0048828,0,0.0087891,0,0.0126953,0  c1.1572266,0,2.2421875,0.4487305,3.0576172,1.2641602c1.6904297,1.690918,1.6806641,4.4511719-0.0214844,6.1538086  c-0.8251953,0.8256836-1.9208984,1.2822266-3.0839844,1.2851562c-0.0048828,0-0.0087891,0-0.0126953,0  c-1.1572266,0-2.2421875-0.4482422-3.0576172-1.2636719C21.4179688,27.5932617,21.4277344,24.8325195,23.1298828,23.1298828z"></path><path d="M40.0966797,16.7719727c-2.4150391,0.7192383-4.7568359,1.7070312-6.9599609,2.9365234  c-0.4824219,0.269043-0.6552734,0.8779297-0.3857422,1.3603516c0.1826172,0.328125,0.5234375,0.5126953,0.8740234,0.5126953  c0.1650391,0,0.3320312-0.0405273,0.4863281-0.1269531c2.0751953-1.1577148,4.28125-2.0883789,6.5556641-2.765625  c0.5292969-0.1577148,0.8310547-0.7143555,0.6728516-1.2436523C41.1826172,16.9165039,40.6269531,16.6132812,40.0966797,16.7719727z  "></path><path d="M58.8603516,18.543457c2.2871094,0.6489258,4.5048828,1.5507812,6.5927734,2.6801758  c0.1513672,0.0820312,0.3144531,0.1206055,0.4746094,0.1206055c0.3554688,0,0.6992188-0.1894531,0.8808594-0.5239258  c0.2626953-0.4858398,0.0820312-1.0927734-0.4042969-1.3554688c-2.2158203-1.1992188-4.5703125-2.15625-6.9970703-2.8452148  c-0.5322266-0.1499023-1.0839844,0.1572266-1.2353516,0.6889648C58.0205078,17.8398438,58.3291016,18.3925781,58.8603516,18.543457z  "></path><path d="M78.8066406,32.6254883c-0.4824219,0.2695312-0.6552734,0.878418-0.3857422,1.3608398  c1.1582031,2.0766602,2.0888672,4.2822266,2.765625,6.5556641c0.1289062,0.434082,0.5263672,0.715332,0.9580078,0.715332  c0.09375,0,0.1904297-0.0136719,0.2851562-0.0419922c0.5292969-0.1577148,0.8310547-0.7143555,0.6728516-1.2436523  c-0.7177734-2.4135742-1.7050781-4.7553711-2.9355469-6.9599609C79.8984375,32.5288086,79.2880859,32.3574219,78.8066406,32.6254883  z"></path><path d="M82.5654297,58.0473633c-0.5273438-0.1503906-1.0830078,0.1567383-1.234375,0.6889648  c-0.6484375,2.2866211-1.5507812,4.5043945-2.6796875,6.5908203c-0.2636719,0.4858398-0.0830078,1.0927734,0.4023438,1.3554688  c0.1513672,0.0820312,0.3144531,0.1206055,0.4755859,0.1206055c0.3554688,0,0.6992188-0.1894531,0.8808594-0.5239258  c1.1992188-2.215332,2.15625-4.5693359,2.8447266-6.9970703C83.4052734,58.7509766,83.0976562,58.1977539,82.5654297,58.0473633z"></path><path d="M65.8886719,78.2954102c-2.0751953,1.1577148-4.28125,2.0883789-6.5556641,2.765625  c-0.5292969,0.1577148-0.8310547,0.7143555-0.6728516,1.2436523c0.1289062,0.4345703,0.5263672,0.715332,0.9580078,0.715332  c0.09375,0,0.1904297-0.0136719,0.2851562-0.0419922c2.4150391-0.7192383,4.7568359-1.7070312,6.9599609-2.9365234  c0.4824219-0.269043,0.6552734-0.8779297,0.3857422-1.3603516C66.9804688,78.1982422,66.3701172,78.0253906,65.8886719,78.2954102z"></path><path d="M34.546875,78.5263672c-0.4863281-0.2636719-1.0917969-0.081543-1.3554688,0.4033203  c-0.2626953,0.4858398-0.0820312,1.0927734,0.4042969,1.3554688c2.2158203,1.1992188,4.5703125,2.15625,6.9970703,2.8452148  c0.0917969,0.0258789,0.1835938,0.0385742,0.2744141,0.0385742c0.4355469,0,0.8359375-0.2875977,0.9609375-0.7275391  c0.1513672-0.53125-0.1572266-1.0839844-0.6884766-1.2348633C38.8525391,80.5576172,36.6347656,79.6557617,34.546875,78.5263672z"></path><path d="M18.8134766,59.2080078c-0.15625-0.5283203-0.7119141-0.831543-1.2431641-0.6733398  c-0.5292969,0.1577148-0.8310547,0.7143555-0.6728516,1.2436523c0.7177734,2.4135742,1.7050781,4.7553711,2.9355469,6.9599609  c0.1826172,0.328125,0.5234375,0.5126953,0.8740234,0.5126953c0.1650391,0,0.3320312-0.0405273,0.4863281-0.1264648  c0.4824219-0.2695312,0.6552734-0.878418,0.3857422-1.3608398C20.4208984,63.6870117,19.4902344,61.4814453,18.8134766,59.2080078z"></path><path d="M19.5898438,33.4707031c-1.1992188,2.215332-2.15625,4.5693359-2.8447266,6.9970703  c-0.1503906,0.53125,0.1572266,1.0844727,0.6894531,1.2348633c0.0908203,0.0258789,0.1826172,0.0385742,0.2734375,0.0385742  c0.4355469,0,0.8359375-0.2875977,0.9609375-0.7275391c0.6484375-2.2866211,1.5507812-4.5043945,2.6796875-6.5908203  c0.2636719-0.4858398,0.0830078-1.0927734-0.4023438-1.3554688S19.8544922,32.984375,19.5898438,33.4707031z"></path><path d="M50,45.097168c4.6777344,0,8.4833984-3.8056641,8.4833984-8.4833984c0-4.6782227-3.8056641-8.4838867-8.4833984-8.4838867  s-8.4833984,3.8056641-8.4833984,8.4838867C41.5166016,41.2915039,45.3222656,45.097168,50,45.097168z M50,30.1298828  c3.5751953,0,6.4833984,2.9086914,6.4833984,6.4838867S53.5751953,43.097168,50,43.097168s-6.4833984-2.9082031-6.4833984-6.4833984  S46.4248047,30.1298828,50,30.1298828z"></path><path d="M32.9228516,65.8032227c0,0.5522461,0.4472656,1,1,1h32.1542969c0.5527344,0,1-0.4477539,1-1  c0-9.4008789-7.6484375-17.0488281-17.0488281-17.0488281h-0.0566406  C40.5712891,48.7543945,32.9228516,56.4023438,32.9228516,65.8032227z M49.9716797,50.7543945h0.0566406  c7.9619141,0,14.5,6.2148438,15.015625,14.0488281H34.9560547C35.4716797,56.9692383,42.0097656,50.7543945,49.9716797,50.7543945z"></path></svg>