<svg height='100px' width='100px'  fill="#C6168D" xmlns="http://www.w3.org/2000/svg" xmlns:xlink="http://www.w3.org/1999/xlink" version="1.1" x="0px" y="0px" viewBox="0 0 100 100" style="enable-background:new 0 0 100 100;" xml:space="preserve"><path d="M90,78.3388672c0-2.8378906-2.3085938-5.1464844-5.1455078-5.1464844c-2.8378906,0-5.1464844,2.3085938-5.1464844,5.1464844  c0,2.4946289,1.7861328,4.5773315,4.1464844,5.0444336V88h-6.4667969V49.8076172c0-0.5527344-0.4472656-1-1-1H73.21875V11  c0-0.5527344-0.4472656-1-1-1H27.7792969c-0.5527344,0-1,0.4472656-1,1v37.8076172H23.609375c-0.5527344,0-1,0.4472656-1,1V88  h-6.4638672v-4.6166992c2.3603516-0.4671021,4.1464844-2.5498047,4.1464844-5.0444336  c0-2.8378906-2.3085938-5.1464844-5.1464844-5.1464844C12.3085938,73.1923828,10,75.5009766,10,78.3388672  c0,2.4945068,1.7859497,4.5770874,4.1455078,5.0443726V88H11c-0.5527344,0-1,0.4472656-1,1s0.4472656,1,1,1h78  c0.5527344,0,1-0.4472656,1-1s-0.4472656-1-1-1h-3.1455078v-4.6167603C88.2141113,82.9159546,90,80.833374,90,78.3388672z   M12,78.3388672c0-1.7353516,1.4111328-3.1464844,3.1455078-3.1464844c1.7353516,0,3.1464844,1.4111328,3.1464844,3.1464844  c0,1.734375-1.4111328,3.1455078-3.1464844,3.1455078C13.4111328,81.484375,12,80.0732422,12,78.3388672z M28.7792969,21.5947266  H71.21875v16.9570312H28.7792969V21.5947266z M71.21875,12v7.5947266H28.7792969V12H71.21875z M28.7792969,40.5517578H71.21875  v8.2558594H28.7792969V40.5517578z M75.3876953,50.8076172v17.265625H24.609375v-17.265625H75.3876953z M24.609375,70.0732422  h50.7783203V88h-5.609375V76.125c0-0.5527344-0.4472656-1-1-1H54.3125c-0.5527344,0-1,0.4472656-1,1V88h-6.7207031V76.125  c0-0.5527344-0.4472656-1-1-1H31.1259766c-0.5527344,0-1,0.4472656-1,1V88H24.609375V70.0732422z M62.5449219,77.125h5.2333984V88  h-5.2333984V77.125z M60.5449219,88H55.3125V77.125h5.2324219V88z M39.3583984,77.125h5.2333984V88h-5.2333984V77.125z   M37.3583984,88h-5.2324219V77.125h5.2324219V88z M81.7080078,78.3388672c0-1.7353516,1.4111328-3.1464844,3.1464844-3.1464844  C86.5888672,75.1923828,88,76.6035156,88,78.3388672c0,1.734375-1.4111328,3.1455078-3.1455078,3.1455078  C83.1191406,81.484375,81.7080078,80.0732422,81.7080078,78.3388672z"></path><path d="M61.8085938,25.4306641c-0.390625-0.390625-1.0234375-0.390625-1.4140625,0l-3.7890625,3.7900391  c-0.390625,0.390625-0.390625,1.0234375,0,1.4140625c0.1953125,0.1953125,0.4511719,0.2929688,0.7070312,0.2929688  s0.5117188-0.0976562,0.7070312-0.2929688l3.7890625-3.7900391C62.1992188,26.4541016,62.1992188,25.8212891,61.8085938,25.4306641z  "></path><path d="M66.9335938,27.3251953c-0.390625-0.390625-1.0234375-0.390625-1.4140625,0L58.5,34.3457031  c-0.390625,0.390625-0.390625,1.0234375,0,1.4140625c0.1953125,0.1953125,0.4511719,0.2929688,0.7070312,0.2929688  s0.5117188-0.0976562,0.7070312-0.2929688l7.0195312-7.0205078C67.3242188,28.3486328,67.3242188,27.7158203,66.9335938,27.3251953z  "></path><path d="M61.7099609,60.2919922c0.2558594,0,0.5117188-0.0976562,0.7070312-0.2929688l3.7900391-3.7900391  c0.390625-0.390625,0.390625-1.0234375,0-1.4140625s-1.0234375-0.390625-1.4140625,0l-3.7900391,3.7900391  c-0.390625,0.390625-0.390625,1.0234375,0,1.4140625C61.1982422,60.1943359,61.4541016,60.2919922,61.7099609,60.2919922z"></path><path d="M62.8984375,65.1240234c0.1953125,0.1953125,0.4511719,0.2929688,0.7070312,0.2929688  s0.5117188-0.0976562,0.7070312-0.2929688l7.0195312-7.0205078c0.390625-0.390625,0.390625-1.0234375,0-1.4140625  s-1.0234375-0.390625-1.4140625,0l-7.0195312,7.0205078C62.5078125,64.1005859,62.5078125,64.7333984,62.8984375,65.1240234z"></path></svg>